<svg width="483" height="317" viewBox="0 0 483 317" fill="none" xmlns="http://www.w3.org/2000/svg">
<path d="M206.224 232.469C196.124 252.519 172.547 262.172 151.338 254.264C130.13 246.356 118.629 223.623 124.122 201.856L206.224 232.469Z" stroke="#ECF2F2" stroke-opacity="0.5" stroke-width="10" stroke-miterlimit="10" stroke-linecap="round" stroke-linejoin="round"/>
<path d="M39.935 129.67L39.9356 129.67L71.7789 117.48C73.1194 116.966 74.1747 115.902 74.6762 114.557L106.531 29.1268C129.937 -33.6446 204.628 -68.5246 265.991 -45.6439C327.355 -22.7627 360.974 52.5034 337.569 115.275L305.714 200.705C305.212 202.05 305.313 203.545 305.99 204.811L322.078 234.874L326.354 232.586L322.078 234.874C326.654 243.423 324.457 253.785 316.905 259.652C310.658 264.437 302.014 265.696 294.131 262.757L42.805 169.044C34.9206 166.104 29.2122 159.493 27.6234 151.786C25.7561 142.407 30.8808 133.135 39.935 129.67Z" stroke="#ECF2F2" stroke-opacity="0.5" stroke-width="10" stroke-miterlimit="10" stroke-linecap="round" stroke-linejoin="round"/>
<path fill-rule="evenodd" clip-rule="evenodd" d="M413.882 147.862L414 163L417 162.977L416.882 147.886L430.976 148L431 145L416.859 144.886L416.75 130.977L413.75 131L413.858 144.862L400 144.75L399.976 147.75L413.882 147.862Z" fill="#ECF2F2"/>
<path fill-rule="evenodd" clip-rule="evenodd" d="M471 273V282H474V273H483V270H474V260H471V270H461V273H471Z" fill="#ECF2F2"/>
</svg>
