<svg width="60" height="60" viewBox="0 0 60 60" fill="none" xmlns="http://www.w3.org/2000/svg">
<rect width="60" height="60" rx="30" fill="#275ADE"/>
<path d="M29.9839 21.125C26.7542 21.125 24.125 23.7499 24.125 26.9744C24.125 30.1988 26.7542 32.8238 29.9839 32.8238C33.2136 32.8238 35.8427 30.1988 35.8427 26.9744C35.8427 23.7499 33.2209 21.125 29.9839 21.125ZM29.9839 30.8057C27.8673 30.8057 26.1463 29.0875 26.1463 26.9744C26.1463 24.8613 27.8673 23.143 29.9839 23.143C32.1004 23.143 33.8214 24.8613 33.8214 26.9744C33.8214 29.0875 32.1004 30.8057 29.9839 30.8057Z" fill="white"/>
<path d="M29.9927 16C23.9361 16 19 20.5996 19 26.2432C19 31.6481 28.7916 43.1538 29.2091 43.6451C29.3995 43.8703 29.6924 44 30 44C30.3076 44 30.6005 43.8703 30.7909 43.6451C31.2084 43.1606 41 31.6481 41 26.2432C40.9927 20.5996 36.0566 16 29.9927 16ZM29.9927 41.5296C26.9095 37.7694 21.0213 29.8533 21.0213 26.2432C21.0213 21.63 25.0493 17.8835 29.9927 17.8835C34.9434 17.8835 38.9641 21.6369 38.9641 26.2432C38.9714 29.8533 33.0832 37.7694 29.9927 41.5296Z" fill="white"/>
</svg>
