<svg width="175" height="58" viewBox="0 0 175 58" fill="none" xmlns="http://www.w3.org/2000/svg">
<rect width="174.84" height="58" rx="29" fill="#0094FF"/>
<rect x="140.426" y="21" width="3.72053" height="16" rx="1.86027" fill="white"/>
<rect x="134.848" y="31" width="4" height="14.88" rx="2" transform="rotate(-90 134.848 31)" fill="white"/>
<path d="M37.4033 19.576V27.012H40.4833V28.772H37.4033V38.804H35.3793V19.576H37.4033ZM23.1473 34.272V21.16H25.1713V26.132H30.2313V21.16H32.2553V34.272H23.1473ZM25.1713 32.556H30.2313V27.716H25.1713V32.556ZM59.057 34.8V36.516H41.413V34.8H49.157V31.412H43.569V25.296H54.877V22.612H43.525V20.94H56.901V26.968H45.593V29.74H57.341V31.412H51.181V34.8H59.057ZM75.4307 19.576V27.232H78.4227V28.948H75.4307V38.804H73.4067V19.576H75.4307ZM60.4267 33.656C65.2667 31.258 67.8847 27.804 68.3247 23.316H61.3947V21.6H70.4147C70.3927 27.166 67.9287 32.138 61.5707 35.24L60.4267 33.656ZM95.4563 19.576V38.804H93.3883V19.576H95.4563ZM79.6163 33.656C84.7643 31.236 87.2503 27.76 87.6463 23.272H80.5843V21.644H89.7363C89.7143 27.276 87.3163 32.16 80.7163 35.328L79.6163 33.656Z" fill="white"/>
</svg>
