<svg width="43" height="46" viewBox="0 0 43 46" fill="none" xmlns="http://www.w3.org/2000/svg">
<path d="M7.57703 32.8644V41.8043C7.57703 42.0823 7.63272 42.3485 7.73252 42.5888C7.83231 42.8298 7.97852 43.0456 8.15722 43.2276C8.33514 43.4111 8.5471 43.5584 8.78537 43.6608C9.02208 43.7608 9.28123 43.8175 9.55431 43.8175H16.8825H24.2083H31.5365H38.8631C39.1362 43.8175 39.3961 43.7608 39.6328 43.6608C39.8703 43.5584 40.0823 43.4119 40.261 43.2276C40.4397 43.0456 40.5859 42.8298 40.6849 42.5888C40.7847 42.3485 40.8404 42.0815 40.8404 41.8043V33.0172V28.1755V19.3868V10.5989L38.7734 8.49511L36.7064 6.3897L34.6386 4.28509L32.57 2.17969H26.8161H21.0614H15.3082H9.55354C9.28046 2.17969 9.02131 2.23561 8.78459 2.33801C8.5471 2.43961 8.33591 2.58769 8.15722 2.76885C7.97852 2.95159 7.83231 3.16741 7.73252 3.41001C7.63272 3.65024 7.57703 3.9141 7.57703 4.19451V14.5821" stroke="white" stroke-width="3" stroke-linecap="round" stroke-linejoin="round"/>
<path d="M36.588 12.7909H31.087V7.1875" stroke="white" stroke-width="3" stroke-linecap="round" stroke-linejoin="round"/>
<path d="M2.1604 21.1094H18.7925" stroke="#0094FF" stroke-width="3" stroke-linecap="round" stroke-linejoin="round"/>
<path d="M12.217 28.2031H18.7925" stroke="#0094FF" stroke-width="3" stroke-linecap="round" stroke-linejoin="round"/>
</svg>
