<svg width="15" height="14" viewBox="0 0 15 14" fill="none" xmlns="http://www.w3.org/2000/svg">
<rect width="2.99844" height="3" fill="white"/>
<rect width="2.99844" height="3" fill="white"/>
<rect x="5.99609" width="2.99844" height="3" fill="white"/>
<rect x="5.99609" width="2.99844" height="3" fill="white"/>
<rect x="11.9922" width="2.99844" height="3" fill="white"/>
<rect x="11.9922" width="2.99844" height="3" fill="white"/>
<rect x="0.0078125" y="5" width="2.99844" height="3" fill="white"/>
<rect x="0.0078125" y="5" width="2.99844" height="3" fill="white"/>
<rect x="6.00391" y="5" width="2.99844" height="3" fill="white"/>
<rect x="6.00391" y="5" width="2.99844" height="3" fill="white"/>
<rect x="12" y="5" width="2.99844" height="3" fill="white"/>
<rect x="12" y="5" width="2.99844" height="3" fill="white"/>
<rect x="0.0078125" y="11" width="2.99844" height="3" fill="white"/>
<rect x="0.0078125" y="11" width="2.99844" height="3" fill="white"/>
<rect x="6.00391" y="11" width="2.99844" height="3" fill="white"/>
<rect x="6.00391" y="11" width="2.99844" height="3" fill="white"/>
<rect x="12" y="11" width="2.99844" height="3" fill="white"/>
<rect x="12" y="11" width="2.99844" height="3" fill="white"/>
<rect width="2.99844" height="3" fill="white"/>
<rect width="2.99844" height="3" fill="white"/>
<rect x="5.99609" width="2.99844" height="3" fill="white"/>
<rect x="5.99609" width="2.99844" height="3" fill="white"/>
<rect x="11.9922" width="2.99844" height="3" fill="white"/>
<rect x="11.9922" width="2.99844" height="3" fill="white"/>
<rect x="0.0078125" y="5" width="2.99844" height="3" fill="white"/>
<rect x="0.0078125" y="5" width="2.99844" height="3" fill="white"/>
<rect x="6.00391" y="5" width="2.99844" height="3" fill="white"/>
<rect x="6.00391" y="5" width="2.99844" height="3" fill="white"/>
<rect x="12" y="5" width="2.99844" height="3" fill="white"/>
<rect x="12" y="5" width="2.99844" height="3" fill="white"/>
<rect x="0.0078125" y="11" width="2.99844" height="3" fill="white"/>
<rect x="0.0078125" y="11" width="2.99844" height="3" fill="white"/>
<rect x="6.00391" y="11" width="2.99844" height="3" fill="white"/>
<rect x="6.00391" y="11" width="2.99844" height="3" fill="white"/>
<rect x="12" y="11" width="2.99844" height="3" fill="white"/>
<rect x="12" y="11" width="2.99844" height="3" fill="white"/>
</svg>
