<svg width="53" height="46" viewBox="0 0 53 46" fill="none" xmlns="http://www.w3.org/2000/svg">
<path d="M11.068 31.5926L16.287 22.5546L21.506 13.5156" stroke="white" stroke-width="3" stroke-linecap="round" stroke-linejoin="round"/>
<path d="M37.161 40.6328H26.725H16.287" stroke="white" stroke-width="3" stroke-linecap="round" stroke-linejoin="round"/>
<path d="M31.943 13.5156L37.161 22.5546L42.379 31.5926" stroke="white" stroke-width="3" stroke-linecap="round" stroke-linejoin="round"/>
<path d="M26.26 9.185C24.141 9.185 22.416 7.46 22.416 5.341C22.416 3.223 24.141 1.5 26.26 1.5C28.379 1.5 30.103 3.223 30.103 5.341C30.102 7.46 28.379 9.185 26.26 9.185Z" stroke="#0094FF" stroke-width="3" stroke-linecap="round" stroke-linejoin="round"/>
<path d="M5.344 44.2074C3.225 44.2074 1.5 42.4834 1.5 40.3654C1.5 38.2464 3.225 36.5234 5.344 36.5234C7.463 36.5234 9.186 38.2464 9.186 40.3654C9.186 42.4834 7.463 44.2074 5.344 44.2074Z" stroke="#0094FF" stroke-width="3" stroke-linecap="round" stroke-linejoin="round"/>
<path d="M47.407 44.2074C45.289 44.2074 43.564 42.4834 43.564 40.3654C43.564 38.2464 45.289 36.5234 47.407 36.5234C49.527 36.5234 51.251 38.2464 51.251 40.3654C51.251 42.4834 49.527 44.2074 47.407 44.2074Z" stroke="#0094FF" stroke-width="3" stroke-linecap="round" stroke-linejoin="round"/>
</svg>
