<svg width="65" height="40" viewBox="0 0 65 40" fill="none" xmlns="http://www.w3.org/2000/svg">
<g filter="url(#filter0_d_715_3209)">
<path fill-rule="evenodd" clip-rule="evenodd" d="M7.26686 17.8739L3 15.5L7.44561 13.0267C8.8251 6.16666 14.8847 1 22.1509 1H43C51.2843 1 58 7.71573 58 16C58 24.2843 51.2843 31 43 31H22.151C14.5013 31 8.18905 25.2738 7.26686 17.8739Z" fill="white"/>
</g>
<path d="M31.6621 19.5371V20.6035H20.4512V19.5371H25.3594V16.625H26.6445V19.5371H31.6621ZM26.6719 11.6211C26.6719 13.5625 28.8047 15.3809 31.1699 15.7773L30.6094 16.8438C28.627 16.4473 26.8018 15.2236 25.9883 13.5352C25.1816 15.2168 23.377 16.4609 21.4082 16.8438L20.834 15.7773C23.1855 15.3809 25.3047 13.5625 25.3047 11.6211V10.6914H26.6719V11.6211ZM43.0371 9.91211V22.1621H41.793V15.8047H40.2754V21.5742H39.0586V10.2402H40.2754V14.752H41.793V9.91211H43.0371ZM37.8418 11.4707C37.8281 14.6973 36.7617 17.582 33.2617 19.5645L32.5098 18.6621C35.2305 17.124 36.3789 15.0391 36.584 12.5371H33.0293V11.4707H37.8418Z" fill="#333333"/>
<defs>
<filter id="filter0_d_715_3209" x="0" y="0" width="65" height="40" filterUnits="userSpaceOnUse" color-interpolation-filters="sRGB">
<feFlood flood-opacity="0" result="BackgroundImageFix"/>
<feColorMatrix in="SourceAlpha" type="matrix" values="0 0 0 0 0 0 0 0 0 0 0 0 0 0 0 0 0 0 127 0" result="hardAlpha"/>
<feOffset dx="2" dy="4"/>
<feGaussianBlur stdDeviation="2.5"/>
<feComposite in2="hardAlpha" operator="out"/>
<feColorMatrix type="matrix" values="0 0 0 0 0 0 0 0 0 0 0 0 0 0 0 0 0 0 0.07 0"/>
<feBlend mode="normal" in2="BackgroundImageFix" result="effect1_dropShadow_715_3209"/>
<feBlend mode="normal" in="SourceGraphic" in2="effect1_dropShadow_715_3209" result="shape"/>
</filter>
</defs>
</svg>
