<svg width="94" height="51" viewBox="0 0 94 51" fill="none" xmlns="http://www.w3.org/2000/svg">
<g filter="url(#filter0_d_715_3277)">
<path fill-rule="evenodd" clip-rule="evenodd" d="M7.13771 23.8889L3 21.5L7.13771 19.1111C8.32107 8.91477 16.9862 1 27.5 1H66.5C77.8218 1 87 10.1782 87 21.5C87 32.8218 77.8218 42 66.5 42H27.5C16.9862 42 8.32107 34.0852 7.13771 23.8889Z" fill="white"/>
</g>
<path d="M24.7031 11.0293C24.6895 13.2031 25.9473 15.418 27.7793 16.3066L26.9727 17.3457C25.6396 16.6553 24.6074 15.2812 24.0742 13.6406C23.5205 15.3906 22.4473 16.8535 21.0527 17.5781L20.2461 16.5254C22.1328 15.623 23.4043 13.2715 23.4043 11.0293V8.9375H24.7031V11.0293ZM29.9941 7.91211V12.793H31.9629V13.9004H29.9941V20.1621H28.6953V7.91211H29.9941ZM35.9414 8.47266C37.5547 8.45898 38.7988 9.39551 39.0723 10.7695H41.4648V7.91211H42.7637V14.4883H41.4648V11.8359H39.0859C38.8193 13.2441 37.5684 14.1875 35.9414 14.1875C34.0684 14.1875 32.7285 13.0117 32.7285 11.3164C32.7285 9.64844 34.0684 8.45898 35.9414 8.47266ZM35.9414 9.55273C34.7793 9.55273 33.9727 10.2637 33.9727 11.3164C33.9727 12.3691 34.7793 13.0938 35.9414 13.0938C37.0762 13.0938 37.8828 12.3691 37.8828 11.3164C37.8828 10.2637 37.0762 9.55273 35.9414 9.55273ZM36.0645 15.0762V16.498H41.4648V15.0762H42.7637V20.0117H34.7793V15.0762H36.0645ZM36.0645 18.9453H41.4648V17.5234H36.0645V18.9453ZM54.2754 7.89844V11.5625H56.0527V12.6562H54.2754V16.9082H52.9766V7.89844H54.2754ZM54.7949 18.8496V19.9023H46.5098V15.9648H47.8086V18.8496H54.7949ZM48.0957 8.74609C49.9414 8.74609 51.3496 10.0039 51.3633 11.7949C51.3496 13.5723 49.9414 14.8438 48.0957 14.8438C46.25 14.8438 44.8281 13.5723 44.8418 11.7949C44.8281 10.0039 46.25 8.74609 48.0957 8.74609ZM48.0957 9.88086C46.9746 9.88086 46.0996 10.6602 46.1133 11.7949C46.0996 12.9297 46.9746 13.709 48.0957 13.709C49.2305 13.709 50.0918 12.9297 50.0918 11.7949C50.0918 10.6602 49.2305 9.88086 48.0957 9.88086ZM67.2363 7.91211V20.1621H65.9922V13.8867H64.4199V19.5332H63.2031V8.1582H64.4199V12.8203H65.9922V7.91211H67.2363ZM58.623 9.36133V15.8965C59.7578 15.8896 60.9951 15.8008 62.3828 15.5273L62.5195 16.6621C60.8379 16.9629 59.4297 17.0449 58.1172 17.0449H57.3242V9.36133H58.623ZM73.0605 8.63672L69.875 20.4902H68.5762L71.7617 8.63672H73.0605ZM30.8965 21.9121V31.0723H29.666V21.9121H30.8965ZM28.5039 22.1309V30.7031H27.2734V26.3691H25.7559V28.748H20.9707V23.0879H25.7559V25.3027H27.2734V22.1309H28.5039ZM31.252 32.8496V33.9023H22.7754V29.9375H24.0605V32.8496H31.252ZM22.1875 24.1133V27.7363H24.5527V24.1133H22.1875ZM42.4902 28.1875V29.2266H38.7852V31.6191H43.7617V32.6855H32.5508V31.6191H37.4863V29.2266H33.959V22.8555H42.3672V23.9219H35.2715V25.4941H42.1074V26.5195H35.2715V28.1875H42.4902ZM54.8086 21.9258V29.4316H53.5098V21.9258H54.8086ZM50.8984 22.6777V26.1504H46.5645V27.6816C48.7041 27.6611 50.2832 27.5996 52.1426 27.3125L52.3066 28.3652C50.3105 28.6934 48.6289 28.748 46.3184 28.748H45.293V25.1523H49.6133V23.7441H45.2656V22.6777H50.8984ZM50.7207 29.6641C53.3047 29.6641 54.8906 30.4707 54.8906 31.9062C54.8906 33.3145 53.3047 34.1484 50.7207 34.1348C48.123 34.1484 46.5508 33.3145 46.5508 31.9062C46.5508 30.4707 48.123 29.6641 50.7207 29.6641ZM50.7207 30.6895C48.9023 30.6895 47.8359 31.127 47.8359 31.9062C47.8359 32.6855 48.9023 33.1094 50.7207 33.1094C52.5391 33.1094 53.5918 32.6855 53.5918 31.9062C53.5918 31.127 52.5391 30.6895 50.7207 30.6895Z" fill="#333333"/>
<defs>
<filter id="filter0_d_715_3277" x="0" y="0" width="94" height="51" filterUnits="userSpaceOnUse" color-interpolation-filters="sRGB">
<feFlood flood-opacity="0" result="BackgroundImageFix"/>
<feColorMatrix in="SourceAlpha" type="matrix" values="0 0 0 0 0 0 0 0 0 0 0 0 0 0 0 0 0 0 127 0" result="hardAlpha"/>
<feOffset dx="2" dy="4"/>
<feGaussianBlur stdDeviation="2.5"/>
<feComposite in2="hardAlpha" operator="out"/>
<feColorMatrix type="matrix" values="0 0 0 0 0 0 0 0 0 0 0 0 0 0 0 0 0 0 0.07 0"/>
<feBlend mode="normal" in2="BackgroundImageFix" result="effect1_dropShadow_715_3277"/>
<feBlend mode="normal" in="SourceGraphic" in2="effect1_dropShadow_715_3277" result="shape"/>
</filter>
</defs>
</svg>
