<svg width="182" height="72" viewBox="0 0 182 72" fill="none" xmlns="http://www.w3.org/2000/svg">
<path d="M94.2402 7.94336C94.2344 8.5293 94.375 9.0918 94.6621 9.63086C94.9551 10.1699 95.3857 10.6504 95.9541 11.0723C96.5225 11.4941 97.2109 11.8164 98.0195 12.0391L97.123 13.5508C96.2266 13.3047 95.4531 12.9297 94.8027 12.4258C94.1582 11.9219 93.6514 11.3213 93.2822 10.624C92.9307 11.3916 92.4209 12.0508 91.7529 12.6016C91.0908 13.1523 90.2969 13.5625 89.3711 13.832L88.4395 12.3203C89.2539 12.0918 89.9512 11.7549 90.5312 11.3096C91.1113 10.8643 91.5479 10.3516 91.8408 9.77148C92.1396 9.19141 92.2891 8.58203 92.2891 7.94336V7.9082H88.9668V6.36133H92.2891V4.60352H94.2578V6.36133H97.5625V7.9082H94.2402V7.94336ZM90.7949 14.6934H101.061V20.3711H90.7949V14.6934ZM99.127 18.7891V16.2402H92.7285V18.7891H99.127ZM99.1094 4.67383H101.061V8.50586H103.275V10.123H101.061V14.0254H99.1094V4.67383ZM112.17 16.627H104.646V6.2207H112.17V16.627ZM110.219 15.0625V7.75H106.562V15.0625H110.219ZM114.578 4.67383H116.529V10.7734H118.973V12.4258H116.529V20.5645H114.578V4.67383ZM134.125 13.5508H127.832V14.8867C129.268 14.9805 130.381 15.2705 131.172 15.7568C131.963 16.2373 132.361 16.8848 132.367 17.6992C132.367 18.3027 132.145 18.8154 131.699 19.2373C131.26 19.665 130.627 19.9902 129.801 20.2129C128.98 20.4355 128.002 20.5469 126.865 20.5469C125.711 20.5469 124.718 20.4355 123.886 20.2129C123.06 19.9961 122.427 19.6738 121.987 19.2461C121.548 18.8184 121.328 18.3027 121.328 17.6992C121.328 16.8848 121.727 16.2344 122.523 15.748C123.32 15.2617 124.445 14.9717 125.898 14.8779V13.5508H119.641V11.9688H134.125V13.5508ZM120.344 9.70117C121.287 9.61328 122.128 9.43457 122.866 9.16504C123.61 8.89551 124.205 8.56738 124.65 8.18066C125.102 7.79395 125.383 7.38086 125.494 6.94141H120.959V5.37695H132.824V6.94141H128.245C128.351 7.38086 128.626 7.79687 129.071 8.18945C129.522 8.57617 130.12 8.9043 130.864 9.17383C131.614 9.4375 132.473 9.61328 133.439 9.70117L132.754 11.248C131.318 11.1016 130.085 10.7588 129.054 10.2197C128.028 9.6748 127.299 8.99805 126.865 8.18945C126.432 9.00391 125.705 9.68066 124.686 10.2197C123.666 10.7588 122.441 11.1016 121.012 11.248L120.344 9.70117ZM123.314 17.6992C123.309 18.1328 123.604 18.4668 124.202 18.7012C124.8 18.9355 125.667 19.0527 126.804 19.0527C127.97 19.0527 128.86 18.9385 129.476 18.71C130.097 18.4814 130.41 18.1445 130.416 17.6992C130.41 17.2598 130.103 16.9258 129.493 16.6973C128.884 16.4688 128.008 16.3516 126.865 16.3457C125.705 16.3516 124.82 16.4688 124.211 16.6973C123.607 16.9258 123.309 17.2598 123.314 17.6992ZM149.682 12.6719H143.389V13.8672H147.871V17.7695H138.836V18.9297H148.311V20.4238H136.92V16.3633H145.955V15.3438H136.902V13.8672H141.438V12.6719H135.197V11.125H149.682V12.6719ZM137.025 5.16602H147.818V10.123H137.025V5.16602ZM145.867 8.59375V6.69531H138.941V8.59375H145.867ZM164.535 20.5645H162.672V12.5137H161.037V19.791H159.191V4.95508H161.037V10.8965H162.672V4.67383H164.535V20.5645ZM150.49 15.9414C151.615 15.3027 152.447 14.3535 152.986 13.0938C153.525 11.8281 153.795 10.375 153.795 8.73438V7.97852H150.965V6.41406H158.295V7.97852H155.693V8.73438C155.693 10.2344 155.963 11.5732 156.502 12.751C157.041 13.9229 157.873 14.7988 158.998 15.3789L157.855 16.873C157.117 16.4746 156.493 15.9414 155.983 15.2734C155.479 14.6055 155.081 13.8262 154.788 12.9355C154.214 15.0508 153.18 16.5508 151.686 17.4355L150.49 15.9414ZM178.844 9.13867H181.076V10.7559H178.844V16.1699H176.893V4.67383H178.844V9.13867ZM166.979 5.99219H174.098V7.55664H168.912V11.8809C170.459 11.8809 171.704 11.8486 172.647 11.7842C173.597 11.7139 174.531 11.582 175.451 11.3887L175.662 12.9707C174.648 13.1699 173.611 13.3047 172.551 13.375C171.49 13.4453 170.061 13.4805 168.262 13.4805H166.979V5.99219ZM168.666 14.957H170.617V18.666H179.477V20.248H168.666V14.957Z" fill="#091C5A"/>
<path d="M18.3281 44.8984V66.1094H15.7031V44.8984H18.3281ZM6.91406 46.4453C10.1016 46.4453 12.4219 49.3516 12.4453 53.9219C12.4219 58.5391 10.1016 61.4219 6.91406 61.4219C3.70312 61.4219 1.38281 58.5391 1.38281 53.9219C1.38281 49.3516 3.70312 46.4453 6.91406 46.4453ZM6.91406 48.7891C5.10938 48.7891 3.89062 50.6875 3.89062 53.9219C3.89062 57.1797 5.10938 59.0781 6.91406 59.0781C8.69531 59.0781 9.91406 57.1797 9.91406 53.9219C9.91406 50.6875 8.69531 48.7891 6.91406 48.7891ZM29.0156 49.9844C28.9922 53.7578 30.8906 57.6016 34.1719 59.1719L32.5781 61.2578C30.2812 60.0977 28.6289 57.8594 27.7266 55.1641C26.8008 58.0469 25.0664 60.4375 22.6406 61.6562L21.0469 59.5703C24.4453 57.9531 26.3906 53.8984 26.4141 49.9844V46.6094H29.0156V49.9844ZM38.0391 44.8984V53.1953H41.2969V55.4219H38.0391V66.0859H35.4375V44.8984H38.0391ZM49.7812 48.7188C49.7812 51.3203 51.4688 53.7578 54.7734 54.7656L53.5312 56.8047C51.1523 56.0664 49.4648 54.5547 48.5391 52.6328C47.6016 54.8594 45.8086 56.6289 43.2656 57.4844L41.9531 55.4219C45.375 54.2969 47.1562 51.5547 47.1562 48.7422V48.4844H42.6797V46.375H54.1875V48.4844H49.7812V48.7188ZM58.8984 44.8984V49.9844H61.8516V52.1172H58.8984V57.5312H56.2969V44.8984H58.8984ZM52.0078 58C56.3906 58 59.0859 59.4766 59.1094 62.0078C59.0859 64.5625 56.3906 66.0625 52.0078 66.0625C47.5781 66.0625 44.8359 64.5625 44.8359 62.0078C44.8359 59.4766 47.5781 58 52.0078 58ZM52.0078 60.0391C49.1016 60.0391 47.4375 60.7188 47.4375 62.0078C47.4375 63.3203 49.1016 64.0234 52.0078 64.0234C54.9141 64.0234 56.5312 63.3203 56.5312 62.0078C56.5312 60.7188 54.9141 60.0391 52.0078 60.0391ZM89.4043 45.892C88.9963 46.036 88.5043 46.204 87.9283 46.396C87.3763 46.564 86.8123 46.732 86.2363 46.9C85.6603 47.044 85.1203 47.176 84.6163 47.296C84.1123 47.416 83.7163 47.488 83.4283 47.512C83.2123 47.536 82.9843 47.548 82.7443 47.548C82.5043 47.548 82.2763 47.524 82.0603 47.476C81.8683 47.404 81.7003 47.284 81.5563 47.116C81.4363 46.924 81.3763 46.66 81.3763 46.324C81.3763 46.06 81.4363 45.856 81.5563 45.712C81.6763 45.568 81.8323 45.46 82.0243 45.388C82.2163 45.316 82.4203 45.28 82.6363 45.28C82.8763 45.256 83.1043 45.244 83.3203 45.244C83.8483 45.244 84.4243 45.172 85.0483 45.028C85.6963 44.86 86.3443 44.668 86.9923 44.452C87.6643 44.236 88.3123 44.008 88.9363 43.768C89.5603 43.528 90.1123 43.312 90.5923 43.12C90.8803 43 91.1443 42.88 91.3843 42.76C91.6483 42.64 91.9363 42.7 92.2483 42.94C92.5843 43.204 92.7403 43.516 92.7163 43.876C92.7163 44.236 92.6683 44.584 92.5723 44.92C92.3803 45.4 92.1523 45.904 91.8883 46.432C91.6243 46.96 91.3483 47.488 91.0603 48.016C90.7723 48.52 90.4603 49.024 90.1243 49.528C89.8123 50.008 89.4883 50.44 89.1523 50.824C89.6323 50.992 90.1123 51.22 90.5923 51.508C91.0963 51.772 91.5763 52.06 92.0323 52.372C92.4883 52.684 92.8963 52.996 93.2563 53.308C93.6403 53.62 93.9643 53.896 94.2283 54.136C94.3003 54.208 94.3723 54.304 94.4443 54.424C94.5163 54.52 94.5763 54.64 94.6243 54.784C94.6723 54.928 94.6843 55.072 94.6603 55.216C94.6363 55.336 94.5643 55.444 94.4443 55.54C94.2043 55.732 93.9163 55.828 93.5803 55.828C93.2443 55.828 92.9443 55.732 92.6803 55.54C92.3683 55.3 91.9843 55.012 91.5283 54.676C91.0963 54.34 90.6403 54.028 90.1603 53.74C89.7043 53.428 89.2603 53.176 88.8283 52.984C88.3963 52.792 88.0483 52.696 87.7843 52.696C87.5923 52.696 87.3523 52.78 87.0643 52.948C86.8003 53.116 86.5963 53.272 86.4523 53.416C86.1643 53.68 85.8283 53.98 85.4443 54.316C85.0843 54.628 84.7003 54.94 84.2923 55.252C83.8843 55.564 83.4763 55.852 83.0683 56.116C82.6603 56.38 82.2883 56.572 81.9523 56.692C81.6883 56.788 81.3763 56.872 81.0163 56.944C80.6563 57.016 80.3803 56.884 80.1883 56.548C80.0443 56.236 80.0923 55.972 80.3323 55.756C80.5963 55.516 80.8123 55.336 80.9803 55.216C81.6283 54.712 82.3363 54.136 83.1043 53.488C83.8723 52.816 84.6403 52.096 85.4083 51.328C86.1763 50.536 86.9083 49.684 87.6043 48.772C88.3003 47.86 88.9003 46.9 89.4043 45.892ZM101.068 53.524C101.068 53.644 101.056 53.908 101.032 54.316C101.032 54.724 101.02 55.204 100.996 55.756C100.972 56.284 100.924 56.836 100.852 57.412C100.78 57.988 100.696 58.492 100.6 58.924C100.48 59.356 100.312 59.692 100.096 59.932C99.8803 60.172 99.6883 60.292 99.5203 60.292C99.3283 60.268 99.1723 60.148 99.0523 59.932C98.9563 59.692 98.8963 59.476 98.8723 59.284C98.8483 58.924 98.8243 58.336 98.8003 57.52C98.7763 56.704 98.7523 55.768 98.7283 54.712C98.7283 53.656 98.7163 52.552 98.6923 51.4C98.6923 50.224 98.6803 49.12 98.6563 48.088C98.6563 47.032 98.6443 46.096 98.6203 45.28C98.5963 44.44 98.5723 43.84 98.5483 43.48C98.5003 42.856 98.3323 42.34 98.0443 41.932C97.7563 41.5 97.2163 41.116 96.4243 40.78C95.8723 40.54 95.4523 40.252 95.1643 39.916C94.8763 39.556 94.8643 39.136 95.1283 38.656C95.3923 38.176 95.7043 37.972 96.0643 38.044C96.4483 38.092 96.9523 38.26 97.5763 38.548C98.2963 38.884 98.8843 39.244 99.3403 39.628C99.7963 39.988 100.156 40.396 100.42 40.852C100.684 41.308 100.864 41.836 100.96 42.436C101.056 43.012 101.104 43.672 101.104 44.416C101.104 44.8 101.092 45.316 101.068 45.964C101.068 46.612 101.068 47.236 101.068 47.836C101.308 47.764 101.632 47.692 102.04 47.62C102.472 47.548 102.916 47.488 103.372 47.44C103.852 47.368 104.308 47.32 104.74 47.296C105.196 47.272 105.556 47.284 105.82 47.332C105.988 47.38 106.144 47.452 106.288 47.548C106.456 47.62 106.6 47.728 106.72 47.872C106.864 47.992 106.96 48.16 107.008 48.376C107.056 48.568 107.056 48.784 107.008 49.024C106.96 49.24 106.864 49.396 106.72 49.492C106.6 49.588 106.444 49.66 106.252 49.708C106.084 49.732 105.892 49.744 105.676 49.744C105.484 49.72 105.304 49.708 105.136 49.708C104.272 49.66 103.576 49.648 103.048 49.672C102.544 49.696 102.052 49.792 101.572 49.96C101.236 50.08 101.068 50.296 101.068 50.608V53.524ZM94.1563 59.788C94.9723 59.692 95.8003 59.74 96.6403 59.932C97.5043 60.1 98.2723 60.412 98.9443 60.868C99.6403 61.3 100.192 61.876 100.6 62.596C101.032 63.292 101.248 64.12 101.248 65.08C101.224 66.736 100.792 68.032 99.9523 68.968C99.1363 69.904 97.9003 70.54 96.2443 70.876C95.4043 71.044 94.5163 71.08 93.5803 70.984C92.6443 70.888 91.7803 70.624 90.9883 70.192C90.1963 69.784 89.5363 69.184 89.0083 68.392C88.5043 67.6 88.2523 66.58 88.2523 65.332C88.2523 64.468 88.4083 63.712 88.7203 63.064C89.0563 62.416 89.4883 61.864 90.0163 61.408C90.5683 60.952 91.2043 60.592 91.9243 60.328C92.6443 60.04 93.3883 59.86 94.1563 59.788ZM95.2003 68.968C96.4003 68.776 97.3123 68.38 97.9363 67.78C98.5843 67.18 98.8723 66.292 98.8003 65.116C98.7283 64.06 98.3083 63.232 97.5403 62.632C96.7963 62.032 95.7763 61.78 94.4803 61.876C93.2803 61.972 92.3323 62.344 91.6363 62.992C90.9403 63.64 90.6403 64.648 90.7363 66.016C90.7603 66.592 90.9283 67.084 91.2403 67.492C91.5523 67.9 91.9243 68.224 92.3563 68.464C92.8123 68.704 93.2923 68.86 93.7963 68.932C94.3003 69.028 94.7683 69.04 95.2003 68.968ZM136.125 50.644C137.205 50.26 138.249 49.912 139.257 49.6C140.289 49.288 141.261 49.168 142.173 49.24C142.437 49.264 142.677 49.348 142.893 49.492C143.109 49.636 143.241 49.876 143.289 50.212C143.337 50.548 143.229 50.8 142.965 50.968C142.701 51.136 142.449 51.232 142.209 51.256C142.017 51.28 141.765 51.316 141.453 51.364C141.141 51.412 140.817 51.472 140.481 51.544C140.145 51.616 139.821 51.688 139.509 51.76C139.221 51.832 138.993 51.892 138.825 51.94C138.513 52.036 138.093 52.192 137.565 52.408C137.061 52.6 136.461 52.828 135.765 53.092C135.669 53.212 135.621 53.38 135.621 53.596C135.621 53.788 135.645 54.04 135.693 54.352C135.765 54.904 135.813 55.504 135.837 56.152C135.885 56.776 135.909 57.412 135.909 58.06C135.909 58.708 135.873 59.344 135.801 59.968C135.729 60.568 135.621 61.12 135.477 61.624C135.429 61.768 135.357 61.936 135.261 62.128C135.189 62.32 135.093 62.5 134.973 62.668C134.853 62.836 134.709 62.968 134.541 63.064C134.373 63.136 134.181 63.136 133.965 63.064C133.605 62.944 133.413 62.68 133.389 62.272C133.389 61.84 133.413 61.456 133.461 61.12C133.581 60.28 133.617 59.356 133.569 58.348C133.545 57.34 133.461 56.44 133.317 55.648C133.245 55.264 133.137 54.952 132.993 54.712C132.873 54.472 132.729 54.376 132.561 54.424C131.793 54.76 131.001 55.096 130.185 55.432C129.393 55.768 128.625 56.092 127.881 56.404C127.137 56.716 126.441 57.016 125.793 57.304C125.145 57.568 124.569 57.796 124.065 57.988C123.201 58.324 122.253 58.54 121.221 58.636C120.189 58.708 119.169 58.732 118.161 58.708C117.825 58.708 117.525 58.648 117.261 58.528C116.997 58.408 116.865 58.156 116.865 57.772C116.817 57.388 116.925 57.076 117.189 56.836C117.453 56.596 117.717 56.464 117.981 56.44C118.749 56.416 119.517 56.404 120.285 56.404C121.077 56.404 121.821 56.284 122.517 56.044C123.453 55.732 124.521 55.336 125.721 54.856C126.921 54.352 128.145 53.848 129.393 53.344C130.665 52.816 131.889 52.312 133.065 51.832C134.241 51.352 135.261 50.956 136.125 50.644ZM141.885 65.476C142.029 65.668 141.993 65.968 141.777 66.376C141.585 66.808 141.273 67.252 140.841 67.708C140.433 68.164 139.929 68.596 139.329 69.004C138.753 69.412 138.141 69.724 137.493 69.94C136.797 70.18 136.077 70.264 135.333 70.192C134.613 70.144 133.929 69.976 133.281 69.688C132.057 69.256 130.965 68.692 130.005 67.996C129.069 67.324 128.121 66.532 127.161 65.62C126.873 65.332 126.585 65.056 126.297 64.792C126.033 64.528 125.733 64.288 125.397 64.072C125.085 63.856 124.737 63.676 124.353 63.532C123.969 63.388 123.525 63.292 123.021 63.244C122.661 63.196 122.313 63.052 121.977 62.812C121.665 62.572 121.521 62.188 121.545 61.66C121.545 61.42 121.617 61.228 121.761 61.084C121.905 60.94 122.073 60.832 122.265 60.76C122.481 60.688 122.709 60.652 122.949 60.652C123.189 60.652 123.417 60.664 123.633 60.688C124.521 60.808 125.277 61.036 125.901 61.372C126.525 61.684 127.149 62.116 127.773 62.668C128.421 63.268 129.057 63.88 129.681 64.504C130.305 65.128 130.941 65.692 131.589 66.196C132.261 66.724 132.933 67.156 133.605 67.492C134.301 67.828 135.033 68.008 135.801 68.032C137.025 68.056 138.405 67.444 139.941 66.196C140.061 66.124 140.205 66.016 140.373 65.872C140.565 65.728 140.757 65.596 140.949 65.476C141.141 65.356 141.321 65.284 141.489 65.26C141.657 65.236 141.789 65.308 141.885 65.476ZM124.893 50.5C124.821 50.548 124.701 50.596 124.533 50.644C124.365 50.668 124.185 50.692 123.993 50.716C123.825 50.716 123.657 50.692 123.489 50.644C123.345 50.572 123.249 50.452 123.201 50.284C123.129 50.068 123.189 49.816 123.381 49.528C123.597 49.24 123.777 49.048 123.921 48.952C124.641 48.472 125.397 47.872 126.189 47.152C126.981 46.408 127.725 45.652 128.421 44.884C129.141 44.092 129.765 43.336 130.293 42.616C130.845 41.872 131.229 41.26 131.445 40.78C131.685 40.252 131.973 39.988 132.309 39.988C132.621 39.988 132.861 40.048 133.029 40.168C133.197 40.288 133.317 40.444 133.389 40.636C133.461 40.804 133.497 40.996 133.497 41.212C133.497 41.404 133.497 41.584 133.497 41.752C134.577 42.424 135.573 43.072 136.485 43.696C137.421 44.296 138.201 45.04 138.825 45.928C139.017 46.216 139.125 46.54 139.149 46.9C139.197 47.26 139.041 47.536 138.681 47.728C138.297 47.92 137.973 47.932 137.709 47.764C137.469 47.596 137.169 47.284 136.809 46.828C136.593 46.54 136.305 46.24 135.945 45.928C135.585 45.616 135.201 45.328 134.793 45.064C134.409 44.776 134.001 44.524 133.569 44.308C133.137 44.092 132.741 43.948 132.381 43.876C131.829 44.548 131.241 45.208 130.617 45.856C129.993 46.504 129.357 47.128 128.709 47.728C128.061 48.304 127.413 48.832 126.765 49.312C126.117 49.792 125.493 50.188 124.893 50.5ZM170.282 71.488C169.682 71.392 169.07 71.248 168.446 71.056C167.822 70.864 167.234 70.6 166.682 70.264C166.154 69.952 165.686 69.556 165.278 69.076C164.894 68.596 164.642 68.02 164.522 67.348C164.306 66.268 164.366 65.344 164.702 64.576C165.038 63.832 165.53 63.208 166.178 62.704C166.826 62.176 167.582 61.768 168.446 61.48C169.334 61.168 170.222 60.94 171.11 60.796C171.782 60.7 172.49 60.76 173.234 60.976C174.002 61.192 174.71 61.528 175.358 61.984C176.006 62.416 176.534 62.944 176.942 63.568C177.374 64.192 177.614 64.864 177.662 65.584C177.686 66.304 177.482 67.036 177.05 67.78C176.642 68.548 176.09 69.232 175.394 69.832C174.698 70.432 173.894 70.888 172.982 71.2C172.094 71.536 171.194 71.632 170.282 71.488ZM167.114 46.72C167.642 47.488 167.918 48.316 167.942 49.204C167.966 50.068 167.894 50.8 167.726 51.4C167.462 52.408 166.934 53.272 166.142 53.992C165.35 54.712 164.462 55.204 163.478 55.468C162.83 55.66 162.158 55.744 161.462 55.72C160.79 55.672 160.154 55.528 159.554 55.288C158.978 55.024 158.474 54.652 158.042 54.172C157.61 53.668 157.346 53.032 157.25 52.264C157.13 51.376 157.226 50.5 157.538 49.636C157.874 48.748 158.342 47.956 158.942 47.26C159.542 46.54 160.238 45.952 161.03 45.496C161.846 45.016 162.674 44.752 163.514 44.704C164.93 44.632 166.13 45.304 167.114 46.72ZM175.43 52.408C175.118 52.408 174.77 52.444 174.386 52.516C174.002 52.564 173.618 52.636 173.234 52.732C172.85 52.804 172.466 52.888 172.082 52.984C171.722 53.08 171.398 53.164 171.11 53.236C170.774 53.356 170.426 53.38 170.066 53.308C169.73 53.236 169.502 52.972 169.382 52.516C169.262 52.132 169.31 51.844 169.526 51.652C169.742 51.436 170.03 51.268 170.39 51.148C170.678 51.052 171.014 50.956 171.398 50.86C171.782 50.764 172.154 50.68 172.514 50.608C172.898 50.512 173.246 50.428 173.558 50.356C173.894 50.284 174.146 50.224 174.314 50.176C174.578 50.128 174.818 50.02 175.034 49.852C175.25 49.66 175.37 49.42 175.394 49.132L175.358 46.036C175.022 46.108 174.626 46.216 174.17 46.36C173.738 46.48 173.294 46.612 172.838 46.756C172.382 46.876 171.938 47.008 171.506 47.152C171.098 47.272 170.762 47.368 170.498 47.44C170.234 47.512 169.946 47.488 169.634 47.368C169.346 47.248 169.154 46.996 169.058 46.612C168.986 46.3 169.058 46.012 169.274 45.748C169.514 45.484 169.742 45.328 169.958 45.28L173.702 44.308C174.086 44.212 174.446 44.092 174.782 43.948C175.118 43.78 175.31 43.6 175.358 43.408C175.334 42.784 175.166 42.28 174.854 41.896C174.542 41.488 174.002 41.116 173.234 40.78C172.682 40.54 172.262 40.252 171.974 39.916C171.686 39.556 171.674 39.136 171.938 38.656C172.202 38.176 172.514 37.972 172.874 38.044C173.258 38.092 173.762 38.26 174.386 38.548C175.106 38.884 175.694 39.244 176.15 39.628C176.606 39.988 176.966 40.396 177.23 40.852C177.494 41.308 177.674 41.836 177.77 42.436C177.866 43.012 177.914 43.672 177.914 44.416V52.984C177.914 54.112 177.89 55.204 177.842 56.26C177.818 57.316 177.674 58.384 177.41 59.464C177.29 59.896 177.122 60.232 176.906 60.472C176.69 60.712 176.498 60.832 176.33 60.832C176.138 60.808 175.982 60.688 175.862 60.472C175.766 60.232 175.706 60.016 175.682 59.824C175.586 59.056 175.514 58.084 175.466 56.908C175.442 55.732 175.43 54.568 175.43 53.416V52.408ZM175.07 65.476C175.07 64.708 174.782 64.12 174.206 63.712C173.63 63.304 172.706 63.1 171.434 63.1C170.882 63.1 170.342 63.196 169.814 63.388C169.31 63.58 168.854 63.832 168.446 64.144C168.038 64.456 167.714 64.804 167.474 65.188C167.234 65.572 167.138 65.956 167.186 66.34C167.306 67.324 167.702 68.056 168.374 68.536C169.046 69.04 169.778 69.328 170.57 69.4C171.194 69.472 171.782 69.4 172.334 69.184C172.886 68.992 173.366 68.716 173.774 68.356C174.182 67.996 174.494 67.564 174.71 67.06C174.95 66.556 175.07 66.028 175.07 65.476ZM163.01 53.308C163.826 53.068 164.45 52.612 164.882 51.94C165.314 51.268 165.53 50.476 165.53 49.564C165.53 48.892 165.338 48.304 164.954 47.8C164.594 47.296 164.138 47.02 163.586 46.972C163.082 46.948 162.578 47.08 162.074 47.368C161.594 47.656 161.174 48.028 160.814 48.484C160.454 48.916 160.166 49.396 159.95 49.924C159.734 50.428 159.638 50.896 159.662 51.328C159.686 51.808 159.794 52.204 159.986 52.516C160.202 52.828 160.466 53.068 160.778 53.236C161.114 53.38 161.474 53.464 161.858 53.488C162.242 53.488 162.626 53.428 163.01 53.308Z" fill="#222222"/>
</svg>
