<svg width="250" height="250" viewBox="0 0 250 250" fill="none" xmlns="http://www.w3.org/2000/svg">
<rect x="0.5" y="0.5" width="249" height="249" rx="124.5" stroke="#275ADE"/>
<rect x="14" y="14" width="222" height="222" rx="111" fill="#EEF3FF"/>
<rect x="14" y="14" width="222" height="222" rx="111" fill="#F0F4FF"/>
<path d="M124.065 186V184.377C125.13 184.377 126.195 184.377 127.343 184.295L127.425 185.919C126.277 185.919 125.13 185.919 124.065 186ZM120.705 185.838C119.557 185.756 118.492 185.675 117.345 185.594L117.509 183.971C118.574 184.052 119.639 184.133 120.705 184.214V185.838ZM130.703 185.594L130.539 183.971C131.604 183.89 132.669 183.727 133.735 183.565L133.981 185.188C132.915 185.351 131.768 185.513 130.703 185.594ZM114.067 185.188C113.001 185.026 111.854 184.782 110.789 184.539L111.116 182.915C112.182 183.159 113.247 183.321 114.312 183.484L114.067 185.188ZM137.259 184.539L136.931 182.915C137.996 182.672 139.062 182.428 140.045 182.104L140.455 183.646C139.471 184.052 138.324 184.295 137.259 184.539ZM107.592 183.808C106.527 183.484 105.462 183.159 104.396 182.834L104.888 181.292C105.872 181.617 106.937 181.941 108.002 182.266L107.592 183.808ZM143.651 182.753L143.159 181.211C144.225 180.886 145.208 180.48 146.191 180.075L146.765 181.617C145.782 182.023 144.716 182.428 143.651 182.753ZM101.282 181.698C100.217 181.292 99.2335 180.886 98.2501 180.399L98.9057 178.938C99.8891 179.425 100.873 179.831 101.856 180.237L101.282 181.698ZM149.879 180.318L149.224 178.857C150.207 178.37 151.19 177.964 152.092 177.396L152.829 178.857C151.846 179.344 150.863 179.831 149.879 180.318ZM95.2179 178.938C94.2345 178.451 93.2511 177.883 92.3496 177.315L93.1691 175.935C94.0706 176.503 95.054 176.99 95.9554 177.477L95.2179 178.938ZM155.78 177.234L154.96 175.854C155.862 175.285 156.763 174.717 157.665 174.149L158.566 175.529C157.665 176.097 156.681 176.665 155.78 177.234ZM89.4813 175.529C88.5799 174.88 87.6784 174.23 86.7769 173.581L87.7604 172.282C88.6618 172.931 89.4813 173.581 90.3828 174.149L89.4813 175.529ZM161.27 173.5L160.287 172.201C161.188 171.552 162.008 170.902 162.827 170.172L163.893 171.389C162.991 172.201 162.172 172.85 161.27 173.5ZM84.1545 171.47C83.335 170.74 82.5155 170.009 81.696 169.279L82.8433 168.061C83.6628 168.792 84.4004 169.522 85.2199 170.172L84.1545 171.47ZM166.351 169.279L165.204 168.061C166.024 167.331 166.761 166.6 167.499 165.788L168.646 166.925C167.908 167.737 167.171 168.467 166.351 169.279ZM79.3194 166.925C78.5818 166.113 77.8443 165.301 77.1067 164.49L78.336 163.434C79.0735 164.246 79.7292 165.058 80.4667 165.788L79.3194 166.925ZM170.941 164.49L169.711 163.434C170.449 162.623 171.104 161.811 171.76 160.918L173.071 161.892C172.334 162.785 171.596 163.597 170.941 164.49ZM74.976 161.973C74.3204 161.08 73.6648 160.188 73.0092 159.295L74.3204 158.402C74.894 159.295 75.5497 160.188 76.2053 160.999L74.976 161.973ZM174.956 159.214L173.563 158.321C174.137 157.428 174.792 156.535 175.284 155.642L176.677 156.454C176.185 157.347 175.53 158.321 174.956 159.214ZM71.2882 156.454C70.7145 155.48 70.1409 154.587 69.6492 153.613L71.1243 152.882C71.616 153.856 72.1897 154.749 72.7633 155.642L71.2882 156.454ZM178.398 153.532L176.923 152.801C177.415 151.827 177.906 150.934 178.398 149.879L179.873 150.528C179.382 151.583 178.89 152.558 178.398 153.532ZM68.0921 150.691C67.6004 149.717 67.1907 148.661 66.7809 147.687L68.338 147.119C68.7477 148.093 69.1575 149.067 69.6492 150.041L68.0921 150.691ZM181.184 147.525L179.627 146.957C180.037 145.983 180.365 144.927 180.775 143.953L182.332 144.44C182.004 145.496 181.594 146.551 181.184 147.525ZM65.6336 144.522C65.3058 143.466 64.978 142.411 64.6502 141.356L66.2072 140.95C66.535 142.005 66.7809 142.979 67.1907 144.035L65.6336 144.522ZM183.315 141.275L181.758 140.869C182.086 139.814 182.332 138.84 182.578 137.784L184.217 138.109C183.889 139.164 183.643 140.22 183.315 141.275ZM63.8307 138.19C63.5848 137.135 63.4209 135.999 63.1751 134.943L64.8141 134.7C64.978 135.755 65.2238 136.81 65.3877 137.866L63.8307 138.19ZM184.708 134.862L183.069 134.619C183.233 133.564 183.397 132.508 183.479 131.453L185.118 131.615C185.036 132.671 184.954 133.726 184.708 134.862ZM62.7653 131.697C62.6834 130.641 62.5194 129.505 62.5194 128.369L64.1585 128.287C64.2404 129.343 64.3224 130.398 64.4043 131.453L62.7653 131.697ZM185.446 128.287L183.807 128.206C183.889 127.151 183.889 126.096 183.889 124.959V124.716H185.528V124.959C185.528 126.096 185.528 127.151 185.446 128.287ZM62.4375 125.122V125.041C62.4375 123.985 62.4375 122.93 62.5194 121.875L64.1585 121.956C64.0765 123.011 64.0765 123.985 64.0765 125.041L62.4375 125.122ZM183.807 121.55C183.725 120.495 183.643 119.44 183.561 118.385L185.2 118.222C185.364 119.277 185.446 120.414 185.446 121.55H183.807ZM64.4043 118.709L62.7653 118.547C62.8473 117.411 63.0112 116.355 63.1751 115.3L64.8141 115.544C64.6502 116.518 64.4863 117.573 64.4043 118.709ZM183.069 115.138C182.905 114.083 182.66 113.027 182.414 111.972L183.971 111.647C184.217 112.703 184.463 113.758 184.626 114.894L183.069 115.138ZM65.3877 112.297L63.7487 111.972C63.9946 110.917 64.2404 109.862 64.5682 108.806L66.2072 109.212C65.8794 110.267 65.6336 111.242 65.3877 112.297ZM181.676 108.888C181.348 107.832 181.021 106.858 180.693 105.803L182.25 105.316C182.578 106.371 182.905 107.426 183.233 108.482L181.676 108.888ZM67.1087 106.128L65.5516 105.641C65.8794 104.585 66.2892 103.53 66.6989 102.556L68.256 103.124C67.8463 104.098 67.4365 105.154 67.1087 106.128ZM179.627 102.8C179.218 101.826 178.808 100.852 178.316 99.8776L179.791 99.2282C180.283 100.202 180.693 101.257 181.103 102.232L179.627 102.8ZM69.4853 100.121L68.0102 99.4717C68.5019 98.4977 68.9936 97.4424 69.4853 96.4684L70.9604 97.1989C70.4687 98.2542 69.977 99.147 69.4853 100.121ZM176.841 96.9554C176.349 95.9814 175.776 95.0885 175.202 94.1956L176.595 93.3839C177.169 94.358 177.743 95.2508 178.234 96.2249L176.841 96.9554ZM72.5175 94.4391L71.1243 93.6274C71.698 92.6534 72.2716 91.7605 72.9272 90.8676L74.3204 91.7605C73.6648 92.6534 73.0911 93.5462 72.5175 94.4391ZM173.481 91.517C172.907 90.6241 172.252 89.7312 171.596 88.9195L172.907 87.9454C173.563 88.8383 174.219 89.7312 174.874 90.6241L173.481 91.517ZM76.2053 89.163L74.894 88.189C75.5497 87.2961 76.2872 86.4844 76.9428 85.5915L78.1721 86.6467C77.5165 87.4584 76.8609 88.2701 76.2053 89.163ZM169.547 86.4032C168.81 85.5915 168.154 84.7798 167.335 84.0492L168.482 82.9128C169.22 83.7246 169.957 84.5363 170.695 85.348L169.547 86.4032ZM80.3848 84.2116L79.1555 83.0752C79.8931 82.2635 80.7126 81.5329 81.5321 80.7212L82.6794 81.8576C81.8599 82.6693 81.1223 83.481 80.3848 84.2116ZM165.04 81.7764C164.221 81.0459 163.483 80.3154 162.582 79.666L163.729 78.3673C164.548 79.0978 165.368 79.8283 166.187 80.5589L165.04 81.7764ZM85.056 79.8283L83.9906 78.6108C84.8101 77.8802 85.7116 77.2309 86.613 76.5003L87.5964 77.7991C86.7769 78.4484 85.8755 79.0978 85.056 79.8283ZM160.123 77.5556C159.222 76.9062 158.402 76.2568 157.501 75.6886L158.402 74.3087C159.304 74.9581 160.205 75.5263 161.106 76.2568L160.123 77.5556ZM90.2189 75.9321L89.3174 74.6334C90.2189 73.984 91.2023 73.4158 92.1038 72.8476L92.9233 74.2275C92.0218 74.7146 91.1203 75.2828 90.2189 75.9321ZM154.714 73.984C153.813 73.4158 152.829 72.9288 151.846 72.4418L152.584 70.9807C153.567 71.4677 154.55 72.0359 155.452 72.6041L154.714 73.984ZM95.7915 72.6041L95.054 71.143C96.0374 70.656 97.0208 70.169 98.0042 69.682L98.6598 71.143C97.6764 71.6301 96.693 72.0359 95.7915 72.6041ZM148.978 70.9807C147.994 70.4937 147.011 70.0878 146.027 69.682L146.601 68.1397C147.667 68.5456 148.65 68.9514 149.633 69.4385L148.978 70.9807ZM101.61 69.8443L101.036 68.3021C102.102 67.8962 103.085 67.4904 104.151 67.1657L104.642 68.7079C103.659 69.1138 102.593 69.4385 101.61 69.8443ZM142.913 68.6267C141.93 68.3021 140.865 67.9774 139.799 67.7339L140.209 66.1916C141.274 66.5163 142.34 66.841 143.405 67.1657L142.913 68.6267ZM107.756 67.815L107.347 66.2728C108.412 65.9481 109.477 65.7046 110.543 65.4611L110.871 67.0845C109.887 67.2468 108.822 67.4904 107.756 67.815ZM136.685 66.9222C135.62 66.6786 134.554 66.5163 133.489 66.354L133.735 64.7305C134.8 64.8929 135.948 65.1364 137.013 65.2987L136.685 66.9222ZM114.067 66.4351L113.821 64.8117C114.886 64.6494 116.033 64.487 117.099 64.3247L117.263 65.9481C116.197 66.1104 115.132 66.1916 114.067 66.4351ZM130.293 65.9481C129.228 65.8669 128.162 65.7858 127.097 65.7046L127.179 64.0812C128.326 64.1623 129.391 64.2435 130.539 64.3247L130.293 65.9481ZM120.541 65.7046L120.459 64.0812C121.524 64 122.671 64 123.819 64V65.6234C122.671 65.6234 121.606 65.6234 120.541 65.7046Z" fill="#3C2163"/>
<path d="M163.649 124.96C163.649 146.552 145.948 164.085 124.149 164.085C102.35 164.085 84.6484 146.552 84.6484 124.96C84.6484 103.369 102.35 85.8359 124.149 85.8359C145.948 85.8359 163.649 103.369 163.649 124.96Z" fill="#C3A1F3"/>
<path d="M124.148 164.896C101.939 164.896 83.8281 146.957 83.8281 124.96C83.8281 102.962 101.939 85.0234 124.148 85.0234C146.357 85.0234 164.468 102.962 164.468 124.96C164.468 147.038 146.357 164.896 124.148 164.896ZM124.148 86.6469C102.841 86.6469 85.4671 103.855 85.4671 124.96C85.4671 146.064 102.841 163.272 124.148 163.272C145.455 163.272 162.829 146.064 162.829 124.96C162.829 103.855 145.455 86.6469 124.148 86.6469Z" fill="#3C2163"/>
<path d="M135.46 125.938H127.429L127.757 127.236H120.381L120.709 125.938H112.678C112.678 125.938 100.713 132.431 94.8125 151.263C94.8125 151.263 102.27 163.114 123.987 164.088C143.983 164.981 153.817 150.776 153.817 150.776C146.933 131.944 135.46 125.938 135.46 125.938Z" fill="white"/>
<path d="M125.706 164.98C125.133 164.98 124.559 164.98 123.903 164.98C102.023 164.006 94.4011 152.236 94.0733 151.749C93.9094 151.587 93.9094 151.343 93.9913 151.1C99.9738 132.025 111.775 125.45 112.266 125.206C112.348 125.125 112.512 125.125 112.676 125.125H120.707C120.953 125.125 121.199 125.206 121.363 125.45C121.527 125.612 121.609 125.937 121.527 126.18L121.445 126.505H126.69L126.608 126.261C126.526 126.018 126.608 125.774 126.772 125.531C126.936 125.369 127.181 125.206 127.427 125.206H135.459C135.622 125.206 135.704 125.206 135.868 125.287C136.36 125.531 147.669 131.7 154.553 150.613C154.635 150.856 154.635 151.1 154.471 151.343C154.389 151.424 144.719 164.98 125.706 164.98ZM95.7123 151.1C97.0235 152.885 104.973 162.382 123.985 163.275C141.523 164.087 151.193 152.723 152.832 150.613C146.604 133.81 136.688 127.479 135.213 126.667H128.493L128.575 126.911C128.657 127.154 128.575 127.398 128.411 127.641C128.247 127.804 128.001 127.966 127.755 127.966H120.38C120.134 127.966 119.888 127.885 119.724 127.641C119.56 127.479 119.478 127.154 119.56 126.911L119.642 126.586H112.922C111.447 127.641 101.121 134.297 95.7123 151.1Z" fill="#3C2163"/>
<path d="M136.85 110.348C136.85 116.842 131.113 122.037 123.983 122.037C116.854 122.037 111.117 116.842 111.117 110.348V105.884C111.117 99.3903 116.854 94.1953 123.983 94.1953C131.113 94.1953 136.85 99.3903 136.85 105.884V110.348Z" fill="#7452C6"/>
<path d="M123.983 122.848C116.443 122.848 110.297 117.247 110.297 110.348V105.883C110.297 98.9836 116.443 93.3828 123.983 93.3828C131.522 93.3828 137.668 98.9836 137.668 105.883V110.348C137.668 117.247 131.522 122.848 123.983 122.848ZM123.983 95.0062C117.345 95.0062 111.936 99.8765 111.936 105.883V110.348C111.936 116.354 117.345 121.224 123.983 121.224C130.621 121.224 136.029 116.354 136.029 110.348V105.883C136.029 99.8765 130.621 95.0062 123.983 95.0062Z" fill="#3C2163"/>
<path d="M138.082 116.194C138.082 114.571 136.771 113.191 135.132 113.191V109.782C135.132 108.321 134.148 105.398 132.673 105.398L115.463 107.834C113.988 107.834 112.677 109.051 112.677 110.512V113.191C111.202 113.353 110.055 114.652 110.055 116.194C110.055 117.736 111.202 118.954 112.677 119.198V124.636C112.677 126.097 113.906 127.315 115.382 127.315H132.427C133.902 127.315 135.132 126.097 135.132 124.636V119.279C136.771 119.198 138.082 117.818 138.082 116.194Z" fill="white"/>
<path d="M132.427 128.129H115.381C113.414 128.129 111.857 126.586 111.857 124.638V119.768C110.3 119.281 109.234 117.82 109.234 116.115C109.234 114.492 110.3 113.031 111.857 112.463V110.433C111.857 108.485 113.496 106.943 115.463 106.943L132.59 104.508C134.885 104.508 135.95 107.836 135.95 109.703V112.463C137.671 112.868 138.901 114.411 138.901 116.196C138.901 117.982 137.671 119.524 135.95 119.93V124.638C135.95 126.505 134.393 128.129 132.427 128.129ZM132.672 106.212L115.545 108.648C114.397 108.648 113.496 109.54 113.496 110.514V113.193C113.496 113.599 113.168 113.924 112.758 114.005C111.693 114.167 110.873 115.06 110.873 116.196C110.873 117.333 111.693 118.226 112.758 118.388C113.168 118.469 113.496 118.794 113.496 119.2V124.638C113.496 125.693 114.315 126.505 115.381 126.505H132.427C133.492 126.505 134.311 125.693 134.311 124.638V119.281C134.311 118.875 134.639 118.469 135.131 118.469C136.278 118.469 137.262 117.495 137.262 116.278C137.262 115.06 136.278 114.086 135.131 114.086C134.721 114.086 134.311 113.68 134.311 113.274V109.865C134.311 108.404 133.41 106.212 132.672 106.212Z" fill="#3C2163"/>
<path d="M129.72 114.327C129.72 114.976 129.147 115.545 128.491 115.545C127.835 115.545 127.262 114.976 127.262 114.327C127.262 113.678 127.835 113.109 128.491 113.109C129.147 113.191 129.72 113.678 129.72 114.327Z" fill="#3C2163"/>
<path d="M121.029 114.327C121.029 114.976 120.455 115.545 119.8 115.545C119.144 115.545 118.57 114.976 118.57 114.327C118.57 113.678 119.144 113.109 119.8 113.109C120.537 113.191 121.029 113.678 121.029 114.327Z" fill="#3C2163"/>
<path d="M125.624 121.142H124.395C123.494 121.142 122.838 120.899 122.51 120.412C122.182 119.843 122.428 119.194 122.428 119.194C122.756 118.139 123.166 115.136 123.166 115.136C123.248 114.811 123.494 114.567 123.822 114.649C124.149 114.73 124.395 114.973 124.313 115.298C124.313 115.46 123.903 118.464 123.494 119.681L123.412 119.843C123.412 119.843 123.658 120.006 124.231 120.006H125.461C125.788 120.006 126.034 120.249 126.034 120.574C126.28 120.818 126.034 121.142 125.624 121.142Z" fill="#3C2163"/>
<path d="M129.72 134.618C129.474 134.618 129.228 134.537 129.064 134.293L123.656 127.8C123.41 127.475 123.41 126.907 123.738 126.663C124.065 126.42 124.639 126.42 124.885 126.744L129.638 132.508L134.309 126.663C134.555 126.339 135.129 126.257 135.457 126.501C135.784 126.744 135.866 127.313 135.621 127.637L130.294 134.212C130.212 134.456 129.966 134.699 129.72 134.618Z" fill="#3C2163"/>
<path d="M119.227 134.62C118.982 134.62 118.818 134.539 118.654 134.377L112.344 127.802C112.016 127.477 112.016 126.99 112.344 126.665C112.671 126.341 113.163 126.341 113.491 126.665L119.145 132.591L123.653 126.828C123.899 126.503 124.472 126.422 124.8 126.665C125.128 126.909 125.21 127.477 124.964 127.802L119.883 134.295C119.719 134.458 119.555 134.62 119.227 134.62Z" fill="#3C2163"/>
<path d="M120.867 131.777L124.309 127.312L127.997 131.777L126.358 135.024H122.588L120.867 131.777Z" fill="#7452C6"/>
<path d="M126.361 135.835H122.591C122.263 135.835 122.017 135.672 121.853 135.429L120.132 132.182C119.968 131.938 120.05 131.533 120.214 131.289L123.738 126.825C123.902 126.662 124.148 126.5 124.394 126.5C124.64 126.5 124.885 126.581 125.049 126.825L128.737 131.289C128.983 131.533 128.983 131.857 128.819 132.182L127.098 135.429C126.934 135.591 126.688 135.835 126.361 135.835ZM123.083 134.211H125.869L127.098 131.857L124.394 128.61L121.853 131.857L123.083 134.211Z" fill="#3C2163"/>
<path d="M126.354 135.023H122.584L121.027 150.04L124.06 155.884L127.174 150.04L126.354 135.023Z" fill="#7452C6"/>
<path d="M124.059 156.698C123.731 156.617 123.485 156.536 123.321 156.292L120.289 150.367C120.207 150.205 120.207 150.042 120.207 149.88L121.764 134.863C121.846 134.457 122.174 134.133 122.584 134.133H126.353C126.763 134.133 127.173 134.457 127.173 134.863L128.074 149.88C128.074 150.042 128.074 150.205 127.992 150.286L124.878 156.211C124.632 156.536 124.387 156.698 124.059 156.698ZM121.846 149.88L124.059 154.182L126.353 149.88L125.534 135.837H123.239L121.846 149.88Z" fill="#3C2163"/>
<path d="M89.7138 85.8552C89.7138 97.0568 80.5353 106.148 69.226 106.148C57.9168 106.148 48.7383 97.0568 48.7383 85.8552C48.7383 74.6537 57.9168 65.5625 69.226 65.5625C80.6172 65.5625 89.7138 74.6537 89.7138 85.8552Z" fill="#8FDAE2"/>
<path d="M69.3073 106.959C57.5883 106.959 48 97.4619 48 85.8545C48 74.247 57.5883 64.75 69.3073 64.75C81.0262 64.75 90.6145 74.247 90.6145 85.8545C90.5326 97.4619 81.0262 106.959 69.3073 106.959ZM69.3073 66.3734C58.4897 66.3734 49.639 75.1399 49.639 85.8545C49.639 96.569 58.4897 105.335 69.3073 105.335C80.1248 105.335 88.9755 96.569 88.9755 85.8545C88.8935 75.1399 80.1248 66.3734 69.3073 66.3734Z" fill="#3C2163"/>
<path d="M69.4793 89.6719C62.5954 89.6719 56.9408 94.8668 56.2852 101.523C59.809 104.445 64.3983 106.15 69.3154 106.15C74.3963 106.15 79.0675 104.283 82.5914 101.279C81.8539 94.7045 76.1992 89.6719 69.4793 89.6719Z" fill="white"/>
<path d="M69.3146 106.961C64.3975 106.961 59.5624 105.256 55.7926 102.171C55.5468 102.009 55.4648 101.766 55.4648 101.441C56.2024 94.2978 62.1848 88.8594 69.4785 88.8594C76.6082 88.8594 82.5906 94.1355 83.4101 101.116C83.4101 101.36 83.3282 101.684 83.1643 101.847C79.2306 105.175 74.3955 106.961 69.3146 106.961ZM57.1039 101.197C60.5458 103.876 64.8892 105.337 69.2326 105.337C73.7399 105.337 78.1653 103.795 81.6892 100.954C80.7877 94.9472 75.5428 90.564 69.3965 90.564C63.1682 90.4828 57.9234 95.0284 57.1039 101.197Z" fill="#3C2163"/>
<path d="M76.9278 82.7667C76.9278 86.5818 73.8136 89.6663 69.9619 89.6663C66.1102 89.6663 62.9961 86.5818 62.9961 82.7667C62.9961 78.9517 66.1102 75.8672 69.9619 75.8672C73.8136 75.8672 76.9278 78.9517 76.9278 82.7667Z" fill="white"/>
<path d="M69.9611 90.4772C65.6997 90.4772 62.1758 86.9868 62.1758 82.7659C62.1758 78.545 65.6997 75.0547 69.9611 75.0547C74.2226 75.0547 77.7465 78.545 77.7465 82.7659C77.7465 86.9868 74.2226 90.4772 69.9611 90.4772ZM69.9611 76.6781C66.6011 76.6781 63.8148 79.4379 63.8148 82.7659C63.8148 86.1751 66.6011 88.8538 69.9611 88.8538C73.3211 88.8538 76.1074 86.0939 76.1074 82.7659C76.1074 79.3568 73.3211 76.6781 69.9611 76.6781Z" fill="#3C2163"/>
<path d="M70.6181 92.8359H68.6513L67.5859 100.547L69.4708 103.632L71.2737 100.547L70.6181 92.8359Z" fill="#7452C6"/>
<path d="M69.4703 104.198C69.3064 104.198 69.0606 104.117 68.9786 103.873L67.1757 100.87C67.0938 100.789 67.0938 100.626 67.0938 100.464L68.1591 92.7526C68.2411 92.428 68.4869 92.2656 68.7328 92.2656H70.6996C71.0274 92.2656 71.2733 92.5091 71.2733 92.8338L71.9289 100.545C71.9289 100.707 71.9289 100.789 71.8469 100.87L69.962 103.873C69.8801 104.117 69.6342 104.198 69.4703 104.198ZM68.2411 100.464L69.4703 102.412L70.6996 100.383L70.1259 93.402H69.3064L68.2411 100.464Z" fill="#3C2163"/>
<path d="M201.179 162.152C201.179 173.354 192 182.445 180.691 182.445C169.382 182.445 160.203 173.354 160.203 162.152C160.203 150.951 169.382 141.859 180.691 141.859C192 141.859 201.179 150.951 201.179 162.152Z" fill="#F7D979"/>
<path d="M180.69 183.256C168.971 183.256 159.383 173.759 159.383 162.151C159.383 150.544 168.971 141.047 180.69 141.047C192.409 141.047 201.997 150.544 201.997 162.151C201.997 173.759 192.491 183.256 180.69 183.256ZM180.69 142.67C169.873 142.67 161.022 151.437 161.022 162.151C161.022 172.866 169.873 181.632 180.69 181.632C191.508 181.632 200.358 172.866 200.358 162.151C200.358 151.437 191.508 142.67 180.69 142.67Z" fill="#3C2163"/>
<path d="M180.854 165.969C173.97 165.969 168.316 171.164 167.66 177.82C171.184 180.742 175.773 182.446 180.69 182.446C185.771 182.446 190.443 180.58 193.966 177.576C193.229 171.001 187.656 165.969 180.854 165.969Z" fill="white"/>
<path d="M180.69 183.257C175.772 183.257 170.937 181.553 167.168 178.468C166.922 178.306 166.84 178.062 166.84 177.738C167.577 170.595 173.56 165.156 180.853 165.156C187.983 165.156 193.966 170.432 194.785 177.413C194.785 177.657 194.703 177.981 194.539 178.144C190.688 181.472 185.771 183.257 180.69 183.257ZM168.561 177.494C172.003 180.173 176.346 181.634 180.69 181.634C185.197 181.634 189.622 180.092 193.146 177.251C192.245 171.244 187 166.861 180.853 166.861C174.625 166.78 169.38 171.325 168.561 177.494Z" fill="#3C2163"/>
<path d="M188.314 159.071C188.314 162.886 185.2 165.971 181.349 165.971C177.497 165.971 174.383 162.886 174.383 159.071C174.383 155.256 177.497 152.172 181.349 152.172C185.2 152.172 188.314 155.256 188.314 159.071Z" fill="white"/>
<path d="M181.348 166.782C177.004 166.782 173.562 163.292 173.562 159.071C173.562 154.85 177.086 151.359 181.348 151.359C185.609 151.359 189.133 154.85 189.133 159.071C189.133 163.292 185.691 166.782 181.348 166.782ZM181.348 152.983C177.906 152.983 175.202 155.743 175.202 159.071C175.202 162.48 177.988 165.158 181.348 165.158C184.708 165.158 187.494 162.399 187.494 159.071C187.494 155.661 184.79 152.983 181.348 152.983Z" fill="#3C2163"/>
<path d="M182.169 169.133H180.284L179.219 176.844L181.022 179.929L182.907 176.844L182.169 169.133Z" fill="#7452C6"/>
<path d="M181.021 180.495C180.775 180.495 180.611 180.413 180.529 180.17L178.726 177.167C178.645 177.085 178.645 176.923 178.645 176.761L179.71 169.05C179.792 168.725 180.038 168.562 180.284 168.562H182.25C182.578 168.562 182.824 168.806 182.824 169.131L183.48 176.842C183.48 177.004 183.48 177.085 183.398 177.167L181.513 180.17C181.431 180.413 181.267 180.495 181.021 180.495ZM179.792 176.761L181.021 178.709L182.25 176.68L181.677 169.699H180.857L179.792 176.761Z" fill="#3C2163"/>
<path d="M107.347 161.081C107.019 161.081 106.773 160.837 106.773 160.513V146.795C106.773 146.47 107.019 146.227 107.347 146.227C107.675 146.227 107.921 146.47 107.921 146.795V160.513C108.003 160.756 107.757 161.081 107.347 161.081Z" fill="#3C2163"/>
<path d="M140.621 161.081C140.293 161.081 140.047 160.837 140.047 160.513V146.795C140.047 146.47 140.293 146.227 140.621 146.227C140.948 146.227 141.194 146.47 141.194 146.795V160.513C141.194 160.756 140.948 161.081 140.621 161.081Z" fill="#3C2163"/>
</svg>
