<svg width="250" height="250" viewBox="0 0 250 250" fill="none" xmlns="http://www.w3.org/2000/svg">
<rect x="14" y="14" width="222" height="222" rx="111" fill="#F0F4FF"/>
<rect x="0.5" y="0.5" width="249" height="249" rx="124.5" stroke="#275ADE"/>
<path d="M156.751 128.456C150.318 120.009 134.049 117.46 134.049 117.46L124.584 117.096V117.023H124.067H123.549V117.096L114.084 117.46C114.084 117.46 97.89 120.009 91.3828 128.456C91.3828 128.456 80.8825 144.986 77.6289 182.05H123.549H124.658H170.505C167.251 144.986 156.751 128.456 156.751 128.456Z" fill="#C3A1F3"/>
<path d="M171.54 183.001H76.5195L76.5935 181.981C79.8471 145.135 90.0516 128.678 90.4953 127.95C97.1504 119.212 113.123 116.663 113.788 116.518L123.475 116.081H123.993L125.472 116.008V116.153L134.049 116.518C134.863 116.663 150.835 119.212 157.416 127.877C157.86 128.605 168.138 145.135 171.392 181.981L171.54 183.001ZM78.5161 181.107H169.469C166.142 145.426 156.011 129.042 155.937 128.897C149.8 120.887 134.049 118.338 133.901 118.338L123.845 117.974H123.549L114.084 118.338C114.01 118.338 98.2596 120.887 92.1221 128.969C91.9742 129.115 81.8436 145.499 78.5161 181.107Z" fill="#3C2163"/>
<path d="M140.04 118.847L122.885 166.762L106.543 119.284L123.107 113.75L140.04 118.847Z" fill="white"/>
<path d="M122.888 167.637C122.518 167.637 122.148 167.418 122 166.982L105.658 119.577C105.51 119.067 105.732 118.557 106.25 118.412L122.814 112.805C123.035 112.732 123.183 112.732 123.405 112.805L140.339 117.902C140.561 117.975 140.782 118.12 140.93 118.339C141.078 118.557 141.078 118.849 141.004 119.067L123.849 166.909C123.627 167.418 123.331 167.637 122.888 167.637ZM107.729 119.868L122.962 163.923L138.86 119.431L123.109 114.698L107.729 119.868Z" fill="#3C2163"/>
<path d="M69.8912 140.546L66.0742 144.305L69.8912 148.063L73.7081 144.305L69.8912 140.546Z" fill="#6AD1EA"/>
<path d="M69.9432 149.068L65.1367 144.335L69.9432 139.602L74.7497 144.335L69.9432 149.068ZM67.0593 144.335L69.8692 147.102L72.6792 144.335L69.8692 141.495L67.0593 144.335Z" fill="#705699"/>
<path d="M87.2424 82.5105H85.098C84.5804 82.5105 84.1367 82.0736 84.1367 81.5638C84.1367 81.0541 84.5804 80.6172 85.098 80.6172H87.2424C87.7601 80.6172 88.2037 81.0541 88.2037 81.5638C88.1298 82.1464 87.7601 82.5105 87.2424 82.5105Z" fill="#F58B93"/>
<path d="M93.2346 82.5105H91.0902C90.5726 82.5105 90.1289 82.0736 90.1289 81.5638C90.1289 81.0541 90.5726 80.6172 91.0902 80.6172H93.2346C93.7522 80.6172 94.1959 81.0541 94.1959 81.5638C94.122 82.1464 93.7522 82.5105 93.2346 82.5105Z" fill="#F58B93"/>
<path d="M89.1683 80.6144C88.6507 80.6144 88.207 80.1775 88.207 79.6677V77.556C88.207 77.0463 88.6507 76.6094 89.1683 76.6094C89.6859 76.6094 90.1296 77.0463 90.1296 77.556V79.7406C90.0557 80.2503 89.612 80.6144 89.1683 80.6144Z" fill="#F58B93"/>
<path d="M89.1683 86.5128C88.6507 86.5128 88.207 86.0759 88.207 85.5662V83.4545C88.207 82.9447 88.6507 82.5078 89.1683 82.5078C89.6859 82.5078 90.1296 82.9447 90.1296 83.4545V85.5662C90.0557 86.1487 89.612 86.5128 89.1683 86.5128Z" fill="#F58B93"/>
<path d="M179.742 163.417H177.598C177.08 163.417 176.637 162.98 176.637 162.47C176.637 161.96 177.08 161.523 177.598 161.523H179.742C180.26 161.523 180.704 161.96 180.704 162.47C180.704 163.053 180.26 163.417 179.742 163.417Z" fill="#6AD1EA"/>
<path d="M185.735 163.417H183.59C183.073 163.417 182.629 162.98 182.629 162.47C182.629 161.96 183.073 161.523 183.59 161.523H185.735C186.252 161.523 186.696 161.96 186.696 162.47C186.696 163.053 186.252 163.417 185.735 163.417Z" fill="#6AD1EA"/>
<path d="M181.668 161.521C181.151 161.521 180.707 161.084 180.707 160.574V158.462C180.707 157.953 181.151 157.516 181.668 157.516C182.186 157.516 182.63 157.953 182.63 158.462V160.574C182.63 161.157 182.186 161.521 181.668 161.521Z" fill="#6AD1EA"/>
<path d="M181.668 167.489C181.151 167.489 180.707 167.052 180.707 166.543V164.431C180.707 163.921 181.151 163.484 181.668 163.484C182.186 163.484 182.63 163.921 182.63 164.431V166.543C182.63 167.052 182.186 167.489 181.668 167.489Z" fill="#6AD1EA"/>
<path d="M170.143 100.18L166.324 103.938L170.14 107.698L173.958 103.941L170.143 100.18Z" fill="#F7D979"/>
<path d="M170.167 108.394C169.945 108.394 169.797 108.321 169.649 108.176L165.804 104.389C165.508 104.098 165.508 103.661 165.804 103.443L169.649 99.656C169.945 99.3647 170.389 99.3647 170.61 99.656L174.456 103.443C174.603 103.588 174.677 103.734 174.677 103.952C174.677 104.171 174.603 104.316 174.456 104.462L170.61 108.249C170.536 108.321 170.388 108.394 170.167 108.394ZM167.357 103.952L170.167 106.792L173.051 103.952L170.167 101.185L167.357 103.952Z" fill="#705699"/>
<path d="M189 181.109H61V182.93H189V181.109Z" fill="#3C2163"/>
<path d="M138.424 78.2157L131.103 74.7204L120.086 71.298C120.086 71.298 100.712 70.7882 105.666 91.9056H113.209L130.512 90.8133L134.949 91.1774L140.568 92.7794C144.783 82.512 138.424 78.2157 138.424 78.2157Z" fill="#3C2163"/>
<path d="M138.129 92.0495V89.1368C138.129 81.1996 131.548 74.7188 123.488 74.7188C115.428 74.7188 108.773 81.1996 108.773 89.1368V92.0495C105.593 91.3214 104.188 93.7972 104.484 96.273C104.78 98.6032 106.554 100.496 108.773 100.496V100.715C108.773 105.448 111.139 109.672 114.688 112.293V116.808C114.688 121.25 118.607 124.891 123.414 124.891C128.22 124.891 132.14 121.25 132.14 116.808V112.293C135.689 109.672 138.055 105.448 138.055 100.715V100.496C140.274 100.496 142.122 98.6032 142.344 96.273C142.714 93.7972 141.235 91.3214 138.129 92.0495Z" fill="white"/>
<path d="M123.415 125.766C118.091 125.766 113.728 121.688 113.728 116.736V112.658C110.105 109.891 108.034 105.741 107.813 101.299C105.594 100.862 103.819 98.823 103.524 96.3472C103.376 94.7451 103.746 93.216 104.707 92.1965C105.52 91.3227 106.555 90.8858 107.813 90.9586V89.1381C107.813 80.6912 114.837 73.7734 123.415 73.7734C131.993 73.7734 139.018 80.6912 139.018 89.1381V90.9586C140.275 90.8858 141.384 91.3955 142.123 92.1965C143.011 93.216 143.454 94.6723 143.306 96.2743C143.011 98.7502 141.236 100.789 139.018 101.226C138.87 105.741 136.725 109.819 133.102 112.586V116.663C133.102 121.761 128.813 125.766 123.415 125.766ZM107.739 92.8519C107.073 92.8519 106.555 93.0703 106.186 93.5072C105.668 94.0898 105.372 95.1092 105.52 96.2015C105.742 98.0948 107.221 99.624 108.848 99.624C109.365 99.624 109.809 100.061 109.809 100.571V100.789C109.809 105.085 111.806 109.018 115.355 111.639C115.577 111.785 115.725 112.076 115.725 112.367V116.882C115.725 120.814 119.2 124.091 123.563 124.091C127.852 124.091 131.401 120.887 131.401 116.882V112.367C131.401 112.076 131.549 111.785 131.771 111.639C135.32 109.018 137.317 105.085 137.317 100.789V100.571C137.317 100.061 137.761 99.624 138.278 99.624C139.979 99.624 141.458 98.0948 141.68 96.2015C141.828 95.1092 141.532 94.1626 141.014 93.5072C140.423 92.9247 139.609 92.7062 138.574 92.9247C138.278 92.9975 137.982 92.9247 137.761 92.779C137.539 92.6334 137.391 92.3421 137.391 92.0509V89.1381C137.391 81.7106 131.253 75.5939 123.637 75.5939C116.02 75.5939 109.883 81.6378 109.883 89.1381V92.0509C109.883 92.3421 109.735 92.6334 109.513 92.779C109.291 92.9247 108.996 92.9975 108.7 92.9247C108.256 92.8519 107.96 92.8519 107.739 92.8519Z" fill="#3C2163"/>
<path d="M119.42 94.5217C119.42 95.2499 118.829 95.7596 118.163 95.7596C117.424 95.7596 116.906 95.177 116.906 94.5217C116.906 93.7935 117.498 93.2109 118.163 93.2109C118.829 93.2838 119.42 93.7935 119.42 94.5217Z" fill="#3C2163"/>
<path d="M130.065 94.5217C130.065 95.2499 129.473 95.7596 128.808 95.7596C128.068 95.7596 127.551 95.177 127.551 94.5217C127.551 93.7935 128.142 93.2109 128.808 93.2109C129.473 93.2838 130.065 93.7935 130.065 94.5217Z" fill="#3C2163"/>
<path d="M124.525 100.495H122.38C122.011 100.495 121.715 100.204 121.715 99.8398C121.715 99.4757 122.011 99.1844 122.38 99.1844H123.785V95.6163C123.785 95.2522 124.081 94.9609 124.451 94.9609C124.821 94.9609 125.116 95.2522 125.116 95.6163V99.8398C125.19 100.204 124.895 100.495 124.525 100.495Z" fill="#3C2163"/>
<path d="M124.219 105.229C123.258 105.229 120.522 105.01 119.561 102.971C119.413 102.607 119.561 102.243 119.93 102.025C120.3 101.879 120.67 102.025 120.818 102.389C121.557 103.991 124.441 103.845 124.441 103.845C124.811 103.845 125.18 104.136 125.18 104.5C125.18 104.864 124.885 105.229 124.515 105.229C124.515 105.229 124.441 105.229 124.219 105.229Z" fill="#3C2163"/>
<path d="M132.803 67C131.029 67 129.402 67.4369 128.071 68.1651V68.0923C128.071 68.0923 123.412 71.005 118.68 71.2963L119.715 71.6604C109.584 74.9372 108.105 87.0251 108.105 87.0251C118.975 88.6271 125.409 84.6221 128.514 81.7821C129.624 83.5298 132.951 87.7533 138.423 86.8794V80.1801C139.606 78.9422 140.346 77.3402 140.494 75.5926C140.937 71.2963 138.423 67 132.803 67Z" fill="#3C2163"/>
<path d="M126.371 114.985C126.297 114.985 126.223 114.985 126.223 114.985C125.706 114.985 125.336 114.548 125.336 114.038C125.336 113.528 125.78 113.164 126.297 113.164C126.297 113.164 129.551 113.237 131.621 111.562C131.991 111.271 132.583 111.271 132.952 111.708C133.322 112.072 133.248 112.655 132.804 113.019C130.438 114.912 127.185 114.985 126.371 114.985Z" fill="#3C2163"/>
<path d="M133.234 114.258L123.695 125.326L131.534 131.589L137.227 118.336L133.234 114.258Z" fill="white"/>
<path d="M131.538 132.464C131.316 132.464 131.094 132.391 130.946 132.245L123.108 125.983C122.886 125.837 122.812 125.619 122.738 125.328C122.738 125.109 122.812 124.818 122.96 124.672L132.499 113.604C132.647 113.385 132.943 113.312 133.165 113.312C133.46 113.312 133.682 113.385 133.904 113.604L137.897 117.754C138.119 118.046 138.193 118.41 138.045 118.774L132.425 131.954C132.277 132.245 132.055 132.391 131.76 132.464C131.76 132.464 131.612 132.464 131.538 132.464ZM125.031 125.182L131.168 130.061L136.122 118.555L133.313 115.643L125.031 125.182Z" fill="#3C2163"/>
<path d="M117.934 129.77L123.701 125.547L129.025 129.77L126.437 134.722H120.596L117.934 129.77Z" fill="#8FDAE2"/>
<path d="M126.437 135.592H120.67C120.3 135.592 120.004 135.373 119.856 135.082L117.194 130.131C116.972 129.694 117.12 129.257 117.49 128.965L123.258 124.742C123.627 124.524 124.071 124.524 124.441 124.742L129.765 128.965C130.135 129.257 130.209 129.694 129.987 130.131L127.399 135.082C127.103 135.446 126.733 135.592 126.437 135.592ZM121.187 133.771H125.846L127.842 129.985L123.701 126.635L119.191 129.985L121.187 133.771Z" fill="#3C2163"/>
<path d="M126.43 134.719H120.588L117.926 152.05L122.88 166.759L128.426 151.249L126.43 134.719Z" fill="#8FDAE2"/>
<path d="M122.885 167.634C122.442 167.634 122.146 167.343 121.998 166.979L117.044 152.342C116.97 152.196 116.97 152.051 117.044 151.905L119.706 134.574C119.78 134.138 120.149 133.773 120.593 133.773H126.361C126.805 133.773 127.248 134.138 127.322 134.574L129.393 151.104C129.393 151.25 129.393 151.396 129.319 151.541L123.773 167.051C123.625 167.416 123.329 167.634 122.885 167.634ZM118.892 151.978L122.885 163.847L127.47 151.104L125.547 135.594H121.407L118.892 151.978Z" fill="#3C2163"/>
<path d="M125.405 167.421C125.257 167.421 125.109 167.348 124.961 167.275C124.666 167.056 124.592 166.62 124.888 166.328L142.856 144.264L139.455 136.837C139.307 136.545 139.381 136.254 139.603 136.036L144.779 131.375L142.413 122.127C142.339 121.763 142.561 121.399 142.93 121.326C143.3 121.254 143.67 121.472 143.818 121.836L146.258 131.521C146.332 131.739 146.258 132.031 146.036 132.176L140.934 136.764L144.335 144.119C144.409 144.337 144.409 144.628 144.261 144.847L125.997 167.202C125.849 167.348 125.627 167.421 125.405 167.421Z" fill="#3C2163"/>
<path d="M113.505 114.258L123.044 125.326L115.206 131.589L109.586 118.336L113.505 114.258Z" fill="white"/>
<path d="M115.205 132.464C115.131 132.464 115.057 132.464 114.983 132.464C114.688 132.391 114.466 132.172 114.318 131.954L108.698 118.774C108.55 118.41 108.624 118.046 108.846 117.754L112.839 113.604C112.987 113.385 113.283 113.312 113.578 113.312C113.874 113.312 114.096 113.458 114.244 113.604L123.783 124.672C123.931 124.891 124.005 125.109 124.005 125.328C124.005 125.546 123.857 125.764 123.635 125.983L115.797 132.245C115.649 132.391 115.427 132.464 115.205 132.464ZM110.621 118.555L115.575 130.061L121.712 125.182L113.505 115.57L110.621 118.555Z" fill="#3C2163"/>
<path d="M121.338 167.415C121.116 167.415 120.894 167.342 120.82 167.124L102.556 144.769C102.408 144.55 102.334 144.259 102.482 144.04L105.883 136.686L100.781 132.098C100.559 131.953 100.485 131.661 100.559 131.443L102.999 121.758C103.073 121.394 103.517 121.176 103.887 121.248C104.256 121.321 104.478 121.685 104.404 122.049L102.038 131.297L107.214 135.958C107.436 136.176 107.51 136.467 107.362 136.759L103.96 144.259L121.929 166.323C122.151 166.614 122.151 167.051 121.855 167.27C121.707 167.342 121.56 167.415 121.338 167.415Z" fill="#3C2163"/>
<path d="M95.0132 182.784C94.6434 182.784 94.3477 182.492 94.3477 182.128V158.171C94.3477 157.807 94.6434 157.516 95.0132 157.516C95.3829 157.516 95.6787 157.807 95.6787 158.171V182.128C95.6787 182.42 95.3829 182.784 95.0132 182.784Z" fill="#3C2163"/>
<path d="M153.283 182.784C152.913 182.784 152.617 182.492 152.617 182.128V158.171C152.617 157.807 152.913 157.516 153.283 157.516C153.652 157.516 153.948 157.807 153.948 158.171V182.128C153.948 182.42 153.652 182.784 153.283 182.784Z" fill="#3C2163"/>
</svg>
