<svg width="512" height="512" viewBox="0 0 512 512" fill="none" xmlns="http://www.w3.org/2000/svg">
<rect width="512" height="512" fill="#1B8FDB"/>
<path d="M361.2 231.368C359.941 233.346 357.476 234.183 355.272 233.381L254.49 196.678C252.894 196.097 251.117 196.37 249.743 197.369C235.055 208.043 217.384 216.429 196.728 222.528C176.754 228.492 155.511 231.679 133 232.089C130.239 232.139 128 229.896 128 227.134V191.721C128 188.96 130.24 186.73 133 186.641C145.825 186.228 158.172 184.217 170.041 180.608C183.446 176.338 194.779 170.419 204.04 162.85C211.254 156.955 216.545 150.411 219.915 143.22C221.337 140.185 218.941 136.942 215.59 136.942H138.118C135.357 136.942 133.118 134.703 133.118 131.942V96.8198C133.118 94.0584 135.357 91.8198 138.118 91.8198H215.856C218.618 91.8198 220.856 89.5812 220.856 86.8198V68C220.856 65.2386 223.095 63 225.856 63H279.832C282.594 63 284.832 65.2386 284.832 68V86.8198C284.832 89.5812 287.071 91.8198 289.832 91.8198H368.302C371.063 91.8198 373.302 94.0584 373.302 96.8198V131.942C373.302 134.703 371.063 136.942 368.302 136.942H292.764C290.302 136.942 288.221 138.737 287.738 141.152C286.923 145.227 285.889 149.04 284.635 152.59C283.664 155.338 284.985 158.444 287.731 159.421L379.086 191.897C382.113 192.973 383.354 196.584 381.628 199.294L361.2 231.368Z" fill="white"/>
<path d="M371.363 299.402C374.125 299.402 376.363 301.641 376.363 304.402V442.999C376.363 445.76 374.125 447.999 371.363 447.999H141.641C138.879 447.999 136.641 445.76 136.641 442.999V304.402C136.641 301.641 138.879 299.402 141.641 299.402H371.363ZM198.033 397.254C198.033 400.016 200.272 402.254 203.033 402.254H309.971C312.732 402.254 314.971 400.016 314.971 397.254V350.438C314.971 347.677 312.732 345.438 309.971 345.438H203.033C200.272 345.438 198.033 347.677 198.033 350.438V397.254Z" fill="white"/>
<rect x="230" y="231" width="52" height="52" rx="26" fill="white"/>
</svg>
