<svg width="443" height="297" viewBox="0 0 443 297" fill="none" xmlns="http://www.w3.org/2000/svg">
<path d="M12.7675 373.352C10.1835 373.352 7.75624 372.345 5.92064 370.515C4.09516 368.694 3.08887 366.262 3.08887 363.673V48.5067C3.08887 45.9227 4.09516 43.4904 5.9257 41.665C7.75624 39.8395 10.1835 38.8281 12.7725 38.8281H61.6054C62.996 38.8281 64.1338 39.9659 64.1338 41.3565C64.1338 42.7471 62.996 43.8849 61.6054 43.8849H16.0999C11.7157 43.8849 8.1456 47.4549 8.1456 51.8391V360.042C8.1456 364.588 11.8471 368.295 16.3982 368.295H309.472C310.862 368.295 312 369.433 312 370.823C312 372.214 310.862 373.352 309.472 373.352H12.7675Z" fill="#ECF2F2" fill-opacity="0.5"/>
<path d="M4.86144 371.577C6.97692 373.686 9.78453 374.852 12.7675 374.852H309.471C311.691 374.852 313.5 373.042 313.5 370.823C313.5 368.604 311.691 366.795 309.471 366.795H16.3982C12.6762 366.795 9.6456 363.76 9.6456 360.042V51.8391C9.6456 48.2833 12.5441 45.3849 16.0999 45.3849H61.6054C63.8245 45.3849 65.6338 43.5755 65.6338 41.3565C65.6338 39.1375 63.8245 37.3281 61.6054 37.3281H12.7725C9.78353 37.3281 6.97621 38.4989 4.8665 40.6028C2.75294 42.7106 1.58887 45.5253 1.58887 48.5067V363.673C1.58887 366.658 2.75223 369.473 4.86144 371.577Z" stroke="#ECF2F2" stroke-opacity="0.5" stroke-width="3"/>
<path d="M309.471 313.631C308.081 313.631 306.943 312.494 306.943 311.103V51.6722C306.943 47.374 303.454 43.8849 299.156 43.8849H253.488C252.098 43.8849 250.96 42.7471 250.96 41.3565C250.96 39.9659 252.098 38.8281 253.488 38.8281H302.321C304.91 38.8281 307.338 39.8344 309.168 41.665C310.999 43.4955 312.005 45.9227 312.005 48.5118V311.108C312 312.494 310.862 313.631 309.471 313.631Z" fill="#ECF2F2" fill-opacity="0.5"/>
<path d="M313.505 311.114V311.108V48.5118C313.505 45.5246 312.34 42.7159 310.229 40.6043C308.117 38.4927 305.308 37.3281 302.321 37.3281H253.488C251.269 37.3281 249.46 39.1375 249.46 41.3565C249.46 43.5755 251.269 45.3849 253.488 45.3849H299.156C302.626 45.3849 305.443 48.2024 305.443 51.6722V311.103C305.443 313.322 307.252 315.131 309.471 315.131C311.69 315.131 313.497 313.324 313.505 311.114Z" stroke="#ECF2F2" stroke-opacity="0.5" stroke-width="3"/>
<path d="M78.7022 148.94C77.3116 148.94 76.1738 147.802 76.1738 146.411C76.1738 145.021 77.3116 143.883 78.7022 143.883H236.391C237.782 143.883 238.92 145.021 238.92 146.411C238.92 147.802 237.782 148.94 236.391 148.94H78.7022Z" fill="#ECF2F2" fill-opacity="0.5"/>
<path d="M74.6738 146.411C74.6738 148.63 76.4832 150.44 78.7022 150.44H236.391C238.611 150.44 240.42 148.63 240.42 146.411C240.42 144.192 238.611 142.383 236.391 142.383H78.7022C76.4832 142.383 74.6738 144.192 74.6738 146.411Z" stroke="#ECF2F2" stroke-opacity="0.5" stroke-width="3"/>
<path d="M78.7022 218.736C77.3116 218.736 76.1738 217.599 76.1738 216.208C76.1738 214.817 77.3116 213.68 78.7022 213.68H180.054C181.445 213.68 182.583 214.817 182.583 216.208C182.583 217.599 181.445 218.736 180.054 218.736H78.7022Z" fill="#ECF2F2" fill-opacity="0.5"/>
<path d="M74.6738 216.208C74.6738 218.427 76.4832 220.236 78.7022 220.236H180.054C182.273 220.236 184.083 218.427 184.083 216.208C184.083 213.989 182.273 212.18 180.054 212.18H78.7022C76.4832 212.18 74.6738 213.989 74.6738 216.208Z" stroke="#ECF2F2" stroke-opacity="0.5" stroke-width="3"/>
<path d="M109.21 71.305C106.626 71.305 104.198 70.2987 102.363 68.4682C100.537 66.6427 99.5259 64.2104 99.5259 61.6213V20.1005C99.5259 17.5114 100.532 15.0842 102.363 13.2536C104.193 11.4231 106.626 10.4219 109.21 10.4219H205.879C208.468 10.4219 210.895 11.4282 212.726 13.2587C214.557 15.0892 215.563 17.5165 215.563 20.1055V61.6314C215.563 64.2205 214.557 66.6477 212.726 68.4783C210.895 70.3038 208.463 71.3151 205.879 71.3151H109.21V71.305ZM111.718 15.4786C107.789 15.4786 104.588 18.6795 104.588 22.6086V58.4255C104.588 62.7389 108.092 66.2483 112.405 66.2483H202.178C206.769 66.2483 210.501 62.5164 210.501 57.9249V23.2255C210.506 18.9576 207.027 15.4786 202.754 15.4786H111.718Z" fill="#ECF2F2" fill-opacity="0.5"/>
<path d="M101.302 69.5288L101.304 69.5303C103.06 71.2822 105.294 72.3826 107.71 72.7055V72.8151H109.21H205.879C208.863 72.8151 211.675 71.6446 213.785 69.5404L213.787 69.5389C215.898 67.4273 217.063 64.6187 217.063 61.6315V20.1055C217.063 17.1183 215.898 14.3096 213.787 12.198C211.675 10.0864 208.866 8.92188 205.879 8.92188H109.21C106.23 8.92188 103.415 10.0797 101.302 12.193C99.1904 14.3046 98.0259 17.1133 98.0259 20.1005V61.6213C98.0259 64.6091 99.1959 67.4227 101.302 69.5288ZM209.001 23.2238V23.2255V57.9249C209.001 61.688 205.941 64.7482 202.178 64.7482H112.405C108.922 64.7482 106.088 61.9117 106.088 58.4255V22.6086C106.088 19.508 108.617 16.9786 111.718 16.9786H202.754C206.2 16.9786 209.005 19.7867 209.001 23.2238Z" stroke="#ECF2F2" stroke-opacity="0.5" stroke-width="3"/>
<path fill-rule="evenodd" clip-rule="evenodd" d="M373.882 17.862L374 33L377 32.9766L376.882 17.8862L390.976 17.9999L391 15L376.859 14.886L376.75 0.976562L373.75 0.999999L373.858 14.8618L360 14.75L359.976 17.7499L373.882 17.862Z" fill="#ECF2F2"/>
<path fill-rule="evenodd" clip-rule="evenodd" d="M431 143V152H434V143H443V140H434V130H431V140H421V143H431Z" fill="#ECF2F2"/>
</svg>
